<svg version="1.2" xmlns="http://www.w3.org/2000/svg" viewBox="0 0 261 261" width="200" height="200">
	<title>01</title>
	<style>
		.s0 { fill: #010101 } 
		.s1 { fill: #333333 } 
		.s2 { fill: #fafafa } 
		.s3 { fill: #f8f201 } 
		.s4 { fill: #ed0000 } 
		.s5 { fill: #0268fe } 
	</style>
	<g id="Background">
		<path id="Path 1" class="s0" d="m130.5 21c0.6 0 19.2 7.9 41.5 17.6 22.3 9.7 44.7 19.5 49.9 21.8 5.7 2.5 9.8 4.9 10.3 6.1 0.6 1.3-0.7 18.5-3.7 48.5-2.5 25.6-4.9 50.1-5.3 54.6-0.4 4.8-1.3 8.8-2.2 9.8-0.8 1-3.1 2.7-5 3.9-1.9 1.2-3.7 2.4-4 2.7-0.3 0.4-17.8 12.7-39 27.5-21.2 14.7-39.4 27.2-40.5 27.8-1.4 0.6-2.8 0.5-4.7-0.4-1.6-0.8-11.7-7.7-22.5-15.4-10.9-7.7-20.3-14.3-20.8-14.7-0.5-0.4-3.3-2.5-6.2-4.5-2.8-2.1-6-4.4-7-5-1-0.7-7.9-5.5-15.3-10.7-7.4-5.2-14.3-10.2-15.2-11.3-1-1-2-3.6-2.3-5.8-0.2-2.2-1.2-11.7-2-21-0.9-9.3-1.8-19-2-21.5-0.2-2.5-0.7-7.2-1-10.5-0.3-3.3-1.2-12.8-2-21-0.8-8.3-1.7-19.1-2.1-24-0.5-8.4-0.4-9.1 1.7-11 1.2-1.1 23.8-11.3 50.3-22.7 26.5-11.4 48.5-20.7 49.1-20.8z"/>
		<path id="Path 2" class="s1" d="m130.9 24.3l11 4.9c6.1 2.6 11.4 4.8 11.8 4.8 0.5-0.1 1.4 0.6 2 1.5 1.1 1.3-0.4 2.3-11.5 7.5-8.6 4.1-13.3 5.8-14.7 5.4-1.1-0.4-7.2-3.1-25-11.6l2.4-1.6c1.4-1 7.3-3.8 13.2-6.3zm-65.3 28.8c1.1-0.1 7.5 2.7 14.2 6.1 6.7 3.5 12.1 6.7 11.9 7.3-0.2 0.5-7 4.1-29.8 15l-7.2-3.9c-3.9-2.1-9.7-5.4-12.9-7.2-3.2-1.9-5.6-3.9-5.5-4.5 0.1-0.6 6.3-3.7 13.8-6.9 7.4-3.2 14.4-5.9 15.5-5.9zm130-0.1c0.5 0 7.5 2.9 15.5 6.4 7.9 3.5 14.5 6.7 14.5 7.2 0 0.5-5 3.7-11 7.2-6.1 3.4-11.9 6.5-13 6.8-1.3 0.4-6.5-1.4-14.5-5.1-6.9-3.1-13.6-6.3-14.8-7.1-1.2-0.8-2-1.9-1.7-2.4 0.2-0.6 5.7-3.7 12.2-7 6.5-3.2 12.2-5.9 12.8-6zm-153.7 21.7c4.8 2.6 10.7 5.9 17.7 9.9l0.6 7.5c0.3 4 0.9 11.8 1.2 17.1 0.6 8.9 0.5 9.8-1.1 9.8-1 0-3.4-1-5.4-2.3-2.1-1.2-7.3-4.5-11.8-7.2-7.2-4.4-8.1-5.4-8.1-8-0.1-1.7-0.7-9.2-1.5-16.8-0.8-7.6-1.1-14-0.8-14.2 0.3-0.3 4.5 1.6 9.2 4.2zm186.4-2.7c0.4 0.5 0.3 5.8-0.3 11.7-0.5 5.9-1.2 13.2-1.5 16-0.4 5.1-0.6 5.4-5.7 8.6-2.9 1.8-7.5 4.6-10.2 6.2-2.8 1.5-6.2 3.4-7.5 4.1-2.5 1.4-2.5 1.3-2.9-2.9-0.2-2.3 0.2-10.1 0.9-17.2 0.6-7.2 1.2-13.2 1.4-13.5 0.1-0.3 4.7-3 10.2-5.9 5.4-3 11-6.1 12.3-6.8 1.5-0.7 2.8-0.9 3.3-0.3zm-97.7 14.1c0.5 0 7.5 3.3 15.5 7.3 7.9 4.1 14.6 7.9 14.7 8.5 0.1 0.6-1.7 2.2-4 3.5-2.3 1.3-8.9 4.9-14.5 8-5.6 3.1-10.9 5.6-11.7 5.6-0.9 0-5.3-2.2-9.8-4.8-4.5-2.7-9.8-5.6-11.7-6.6-2-0.9-4.7-2.5-6-3.6-2.1-1.6-2.3-2.1-1.2-3.2 0.7-0.7 7.2-4.3 14.5-8 7.2-3.7 13.6-6.7 14.2-6.7zm-66.4 1.9c0.7 0 7 3.1 13.9 6.9 6.8 3.8 13 7.5 13.6 8.2 0.8 0.9 1.3 7.1 1.5 18.1 0.2 9.1 0 17-0.4 17.5-0.4 0.4-3.1-0.7-6-2.6-2.9-1.9-8.8-5.5-21.2-12.9l-0.8-10.3c-0.4-5.7-1.1-13.7-1.4-17.7-0.5-5.8-0.3-7.2 0.8-7.2zm133.2 1.1c0.6 0.5 0.6 6.3-0.2 16.1-0.6 8.4-1.1 15.7-1.1 16.3 0 0.5-5.6 4.5-12.5 8.7-6.9 4.3-13.2 7.8-14 7.8-1.2 0-1.5-1.5-1.5-7.8 0-4.2 0.3-12.1 1.5-27.2l6.9-3.8c3.8-2 9.9-5.3 13.5-7.3 3.5-1.9 6.9-3.2 7.4-2.8zm-99.6 17.9c0.4 0 7.4 3.7 30.3 16.5v17.7c0 15.1-0.3 17.8-1.5 17.8-0.9 0-3.9-1.5-6.8-3.3-2.9-1.7-6.2-3.8-7.3-4.5-1.1-0.6-4.7-2.9-14.2-8.7l-0.6-11c-0.4-6.1-0.6-14-0.6-17.8 0-3.7 0.3-6.7 0.7-6.7zm65.8 0l0.3 10.8c0.1 5.9 0 13.8-0.9 24.7l-12.7 7.7c-7 4.3-13.8 8-17.2 8.8l-0.1-17.3c0-12.9 0.3-17.5 1.3-18.3 0.7-0.6 6.4-4 12.8-7.4 6.3-3.5 12.6-6.9 14-7.7zm-124.8 4.4c1 0.4 6.2 3.5 11.6 6.9 5.4 3.4 10.3 6.7 10.8 7.2 0.5 0.6 1.3 7.6 1.8 15.5 0.4 8 0.5 14.9 0.2 15.4-0.4 0.4-5.8-2.7-12.1-6.9-10.5-7-11.6-8-12.2-11.3-0.4-2-0.9-9-1.2-15.6-0.6-11-0.5-11.8 1.1-11.2zm184.7 1c0.6 0.1 1 0.7 1 1.2 0 0.5-0.3 4.8-0.7 9.4-0.5 4.7-1.1 11-2.1 19.5l-11.1 7.2c-6.1 3.9-11.5 6.8-12 6.5-0.5-0.4-0.6-6.4-0.1-14.7 0.4-7.7 1-14.4 1.2-15 0.2-0.5 5.5-4 11.6-7.7 6.2-3.7 11.7-6.6 12.2-6.4zm-182.4 35.6c0.5 0 6 3.3 23.5 14.8l0.7 9.8c0.4 5.5 0.7 12.1 0.8 14.7 0 2.6-0.5 4.7-1 4.7-0.6 0-5.9-3.3-22.5-14.9l-1.3-10.8c-0.7-5.9-1.2-12.5-1.2-14.5 0-2.1 0.4-3.8 1-3.8zm58.1 1c0.7 0.1 6.3 3 12.4 6.7 6 3.6 12.2 7.4 16.5 10.3v16.5c0 12.6-0.3 16.5-1.3 16.5-0.7 0-7.1-3.9-14.2-8.6-7.2-4.7-13.1-8.7-13.2-8.7 0-0.1-0.4-7.5-0.8-16.4-0.6-13.4-0.5-16.3 0.6-16.3zm62.7 0.1c1-0.1 1.2 3 0.6 16.2-0.3 8.9-0.7 16.3-0.8 16.4-0.1 0-6.1 4-13.4 8.7-7.3 4.8-13.7 8.6-14.2 8.6-0.7 0-1-6-0.5-33.4l13.5-8.2c7.4-4.6 14.1-8.3 14.8-8.3zm57.9-0.1c0.8 0 1.3 1.3 1.3 3.3 0 1.8-0.6 8-2.3 24.2l-4.1 3c-2.2 1.7-7.1 5.2-10.8 7.8-4 2.7-7.3 4.4-8 4-0.8-0.6-1-3.5-0.5-10.3 0.4-5.2 1-11.5 1.4-14 0.6-4.4 0.8-4.6 11.2-11.2 5.8-3.7 11.1-6.7 11.8-6.8zm-150.1 18.1c1 0 7 3.5 24.9 15.5l0.6 5.5c0.4 3 0.7 9.8 0.8 15.2 0 5.9-0.3 9.7-0.9 9.7-0.6 0-4.5-2.3-8.8-5.1-4.3-2.9-9.6-6.6-11.9-8.3-3.7-2.7-4.3-3.6-4.7-8.1-0.3-2.7-0.9-9.4-1.2-14.7-0.6-9.1-0.5-9.8 1.2-9.7zm121.9 0.3c0.5 0.2 0.9 2.5 0.9 5.2-0.1 2.7-0.4 9.2-1.6 23.9l-11.9 8.3c-6.6 4.5-12.4 8.2-12.9 8.2-0.6 0-1-3.8-0.9-9.7 0-5.4 0.3-12.2 1.4-20.4l12-7.9c6.6-4.4 12.4-7.8 13-7.6zm-91 20.6c0.8 0 4.5 1.9 8.2 4.3 3.7 2.3 9.6 6.1 19.3 12.7v15c0 9-0.4 15.2-1 15.5-0.6 0.3-3.9-1.6-7.5-4.2-3.5-2.6-8.8-6.5-11.7-8.6-3-2-5.8-4.1-6.4-4.5-0.7-0.4-1.4-6.4-1.7-15.4-0.5-12.4-0.4-14.8 0.8-14.8zm59.5 0.1c1.4-0.1 1.6 1.6 1.2 13.7-0.2 7.5-0.6 14.3-0.8 15-0.3 0.7-5.7 4.9-12.2 9.4-6.5 4.5-12.4 8.3-13.2 8.6-0.9 0.2-1.8-0.4-2.1-1.4-0.4-1-0.4-7.9 0-15.3 0.5-11.8 0.8-13.5 2.6-14.8 1.1-0.8 6.7-4.5 12.5-8.3 5.7-3.8 11.2-6.9 12-6.9z"/>
		<path id="Path 3" class="s2" d="m99.5 38.1c0.5 0 6 2.3 12 5.1 6 2.8 11.7 5.8 12.5 6.5 1 0.8 1.2 1.6 0.5 2.2-0.5 0.5-6.5 3.4-13.3 6.5-6.7 3.1-13 5.6-13.9 5.6-1-0.1-7-2.9-13.3-6.3-6.3-3.4-11.4-6.7-11.3-7.2 0-0.5 5.8-3.6 12.9-6.7 7.1-3.1 13.4-5.7 13.9-5.7zm63.5 0.5c0.8 0.2 7 2.8 13.7 5.7 8.4 3.5 12.2 5.7 12 6.7-0.1 0.8-5.1 4-11.2 7.2-6.1 3.1-12 5.7-13.2 5.8-1.3 0-7.9-2.7-14.8-6-6.9-3.3-12.6-6.6-12.7-7.3-0.1-0.7 4.9-3.6 12.2-6.9 6.9-3.1 13.2-5.5 14-5.2zm-66.5 30.5c1.1 0 7.4 2.7 14 6 6.6 3.4 12.6 6.5 13.3 7 0.6 0.5 1 1.4 0.7 1.9-0.3 0.5-6.8 4.2-14.5 8-7.7 3.8-14.6 7-15.2 7-0.7 0-7.1-3.2-14.3-7.3-7.2-4-13-7.8-13-8.5 0-0.6 6.1-4.1 13.5-7.6 7.4-3.5 14.4-6.4 15.5-6.5zm68.3-0.1c0.6 0 7.8 3.2 16 7 12.8 6.1 14.5 7.2 13.2 8.4-0.8 0.8-7.3 4.6-27.5 15.5l-14.7-7.7c-8.1-4.2-14.8-8.2-14.9-8.7 0-0.6 5.9-4.1 13.3-7.8 7.3-3.7 13.9-6.7 14.6-6.7z"/>
		<path id="Path 4" class="s3" d="m130.5 53.1c0.6 0 5.1 1.9 10 4.3 4.9 2.3 10.5 4.9 12.3 5.7 2.5 1 3.3 1.9 3 3.4-0.2 1.4-3.8 3.8-24.8 14.5l-12.3-6.1c-6.7-3.4-12.5-6.6-12.9-7.3-0.4-0.6-0.9-1.5-1-1.9-0.1-0.4 5.4-3.4 12.2-6.7 6.9-3.2 12.9-5.9 13.5-5.9z"/>
		<path id="Path 5" class="s4" d="m192.8 131.1c0.6-0.1 1.4 0.5 1.5 1.2 0.2 0.6 0.1 6.6-0.3 13.2-0.4 6.6-1.2 13-1.9 14.3-0.6 1.2-5.5 5.1-10.9 8.7-5.3 3.6-10.7 6.5-12 6.5-2.1 0-2.2-0.4-2.2-6.7 0-3.8 0.3-10.5 1.5-23.4l10-6.2c5.5-3.4 10.7-6.5 11.5-6.9 0.8-0.4 2.1-0.7 2.7-0.7z"/>
		<path id="Path 6" class="s5" d="m67.4 130c0.9 0 6.9 3.2 13.3 7.1 6.5 4 12.1 7.7 12.5 8.3 0.4 0.6 0.8 7.7 0.8 15.8 0 12.5-0.2 14.8-1.5 14.8-0.8 0-6.7-3.5-24.4-15.5l-0.6-8.5c-0.3-4.7-0.8-11.5-1.1-15.3-0.5-5.7-0.4-6.7 1-6.7z"/>
	</g>
</svg>