<svg version="1.2" xmlns="http://www.w3.org/2000/svg" viewBox="0 0 261 261" width="200" height="200">
	<title>02</title>
	<style>
		.s0 { fill: #010101 } 
		.s1 { fill: #343332 } 
		.s2 { fill: #0168fe } 
		.s3 { fill: #ed0101 } 
		.s4 { fill: #f9f301 } 
	</style>
	<g id="Background">
		<path id="Path 1" class="s0" d="m131 21.5c0.8 0.2 3.3 1 5.5 1.8 2.2 0.8 17.9 7.6 35 15 17.1 7.4 37.3 16.3 45 19.6 7.7 3.4 14.6 6.9 15.3 7.9 0.9 1.2 1.1 3.5 0.7 7.7-0.3 3.3-0.8 8-1 10.5-0.2 2.5-1.1 11.5-2 20-0.9 8.5-2.9 28.8-4.5 45q-2.9 29.5-4.2 30.7c-0.7 0.7-3.5 2.7-6.1 4.5-2.6 1.8-21.5 15-41.9 29.3-20.4 14.3-38.2 26.6-39.5 27.2-1.4 0.8-3.2 1-4.6 0.5-1.3-0.4-21.2-14-44.2-30.4-23.1-16.3-42.8-30.4-43.7-31.5-0.9-1-1.9-3.8-2.2-6.3-0.2-2.5-0.9-9-1.5-14.5-0.6-5.5-1.3-13.2-1.6-17-0.3-3.8-0.8-9.3-1-12-0.3-2.8-0.8-7-1-9.5-0.3-2.5-0.8-8.1-1.1-12.5-0.3-4.4-0.8-8.9-1-10-0.2-1.1-0.9-8.4-1.6-16.2-1.3-13.8-1.2-14.3 0.7-16.3 1.1-1.1 23.8-11.4 50.5-22.9 26.7-11.5 49.2-20.7 50-20.6z"/>
		<path id="Path 2" class="s1" d="m130.3 25.1c0.9-0.1 5.9 1.6 10.9 3.8 5.1 2.1 10.6 4.5 12.1 5.2 1.5 0.8 2.8 1.9 2.8 2.4 0 0.5-5.8 3.6-25.6 12.7l-3.5-1.7c-1.9-0.9-7.5-3.6-12.3-5.9-5.3-2.5-8.7-4.6-8.5-5.4 0.2-0.7 5.2-3.5 11.3-6.2 6-2.7 11.8-4.9 12.7-4.9zm-31 13c0.5-0.1 6.4 2.6 13.3 5.9 6.9 3.3 12.5 6.5 12.5 7 0 0.5-2.4 2.1-5.3 3.4-2.8 1.4-8.8 4.1-13.2 6-4.4 2-8.3 3.6-8.8 3.6-0.4 0-5.8-2.5-12-5.6-6.1-3.1-11.9-6.2-12.7-7-1.3-1.2-0.7-1.7 4.5-4 3.3-1.4 8.2-3.6 11-4.8 2.7-1.3 6.1-2.7 7.5-3.4 1.4-0.6 2.8-1.1 3.2-1.1zm62.5 0c0.2-0.1 2.7 1 5.5 2.2 2.9 1.3 9 3.9 13.5 5.8 5.4 2.2 8.2 3.9 8 4.8-0.1 0.8-5.4 4-11.7 7.2-6.3 3.2-12.4 5.8-13.5 5.8-1.1 0-7.6-2.8-14.5-6.2-6.9-3.4-12.4-6.7-12.3-7.2 0.1-0.5 5.7-3.6 12.5-6.7 6.8-3.1 12.4-5.7 12.5-5.7zm-96 15c1.3-0.1 7.1 2.4 13 5.5 6 3.1 11.5 6.2 12.3 7 1.3 1.1-0.6 2.3-13.5 8.4-8.3 3.9-15.3 7-15.8 7-0.4 0-5.5-2.7-11.5-6-5.9-3.2-11.6-6.6-12.7-7.4-1.1-0.8-1.8-1.7-1.5-2 0.3-0.3 6.6-3.2 14-6.5 7.4-3.3 14.5-6 15.7-6zm129.5 0c0.5-0.1 7.3 2.7 15.3 6.2 8 3.4 14.5 6.8 14.5 7.5 0 0.6-5.5 4.2-12.3 7.8-11.8 6.4-12.3 6.6-15.7 5.4-1.9-0.7-8.7-3.8-15-6.9-6.3-3.1-11.6-6.1-11.7-6.6-0.2-0.5 5.2-3.8 11.9-7.2 6.8-3.4 12.6-6.2 13-6.2zm-97.4 15.8c0.9 0.3 7.4 3.6 14.5 7.1 7 3.6 12.6 7 12.4 7.5-0.1 0.5-6.6 4.2-14.2 8.2-7.7 4-14.8 7.2-15.8 7.3-0.9 0-3.2-0.8-5-1.9-1.7-1-6-3.5-9.5-5.5-3.4-2-6.4-3.6-6.7-3.6-0.3 0-1.9-0.9-3.5-2-1.7-1.1-2.9-2.5-2.8-3 0.2-0.6 6.4-3.9 13.9-7.3 7.5-3.4 13.9-6.5 14.3-6.9 0.4-0.4 1.4-0.3 2.4 0.1zm66.9 0.2c0.7-0.1 7.3 2.7 14.5 6.2 7.3 3.4 13.9 6.6 14.5 7 0.7 0.4 1.1 1.2 0.8 1.7-0.3 0.5-3.1 2.4-6.3 4.1-3.1 1.7-8.6 4.7-12.2 6.6-3.6 2-7 3.9-7.5 4.4-0.6 0.5-7.1-2.2-16.2-6.9-8.4-4.2-15.4-8.2-15.5-8.8-0.1-0.6 5.8-4.1 13.2-7.7 7.4-3.6 14.1-6.6 14.7-6.6zm-130.7 1.9c0.8 0 6.9 3.1 25.5 13.6l0.7 8.4c0.3 4.7 0.8 12.3 1 16.9 0.2 6.1 0 8.5-1 8.8-0.6 0.2-5.8-2.5-11.5-5.9-5.6-3.3-11-6.8-11.9-7.7-1.3-1.3-2-5.1-3-17.8-1.2-14.5-1.2-16.3 0.2-16.3zm194.2 1c0.5 0.4 0.3 6.4-0.3 13.2-0.6 6.7-1.4 14-1.8 16.1-0.6 3.6-1.2 4.2-12.6 11.2-6.6 4-12.4 7-12.9 6.7-0.6-0.4-0.6-5.8-0.2-13.2 0.5-6.9 1.1-14.5 2.1-21.5l12.5-6.7c6.8-3.7 12.8-6.3 13.2-5.8zm-98 14.1c0.5-0.1 7.5 3.3 15.8 7.4 9 4.5 14.9 8 14.7 8.8-0.2 0.6-6.9 4.7-14.8 9-7.9 4.3-14.9 7.8-15.4 7.8-0.6 0-5.3-2.4-10.5-5.3-5.2-2.9-10.6-5.9-12-6.6-1.4-0.7-3.6-2.1-5-3.2-2.1-1.6-2.3-2.1-1.2-3.2 0.8-0.7 7.3-4.3 14.5-8 7.3-3.7 13.5-6.7 13.9-6.7zm-66 1.9c0.7 0 6.7 3 13.3 6.6 6.6 3.6 12.8 7.4 13.7 8.3 1.5 1.4 1.7 4.1 1.9 18.6 0.1 9.3-0.2 17.1-0.7 17.3-0.5 0.1-3.6-1.5-6.9-3.6-3.3-2-9-5.5-12.8-7.7-3.9-2.3-6.9-4.8-7.2-6-0.3-1.1-0.9-8.1-1.5-15.5-0.5-7.4-1-14.5-1-15.7 0-1.3 0.6-2.3 1.2-2.3zm133.1 0.1c0.5-0.1 0.6 5 0.2 11.2-0.3 6.1-0.9 14-2 23.8l-12.3 7.4c-6.7 4.1-12.9 7.5-13.7 7.5-1.3 0-1.4-2.3-0.9-17.3 0.4-9.4 0.7-17.3 0.8-17.3 0-0.1 6.2-3.6 13.6-7.7 7.4-4.2 13.9-7.6 14.3-7.6zm-99.6 18.9c0.5 0.1 6.6 3.3 13.8 7.2 7.1 3.9 13.8 7.8 14.8 8.7 1.6 1.4 1.8 3.5 1.7 18.9 0 14.6-0.2 17.2-1.5 17.2-0.8 0-5.7-2.6-10.8-5.8-5-3.2-11-6.8-17.2-10.3l-0.7-11.2c-0.5-6.2-0.8-14.2-0.8-17.9 0-3.8 0.3-6.8 0.7-6.8zm65.8 0l0.3 10.8c0.2 5.9 0.1 13.9-0.9 24.7l-13.7 8.2c-7.5 4.6-14.3 8.3-15 8.3-0.9 0-1.2-4.1-1.2-17.2-0.1-13 0.2-17.6 1.2-18.4 0.7-0.6 6.5-4 12.8-7.4 6.3-3.5 12.6-6.9 14-7.6zm-126 3.9c0.3 0 5.1 2.8 10.7 6.2 5.7 3.4 11.1 6.9 12 7.7 1.4 1.3 1.9 4 2.3 12.1 0.3 5.8 0.8 12.4 1 14.8 0.4 3.5 0.2 4.2-1.3 4.2-0.9 0-6.4-3.1-22.7-13.9l-1.3-10.8c-0.6-5.9-1.2-12.9-1.2-15.5 0-2.6 0.2-4.8 0.5-4.8zm186 1.4c0.6 0.2 1 0.7 1 1.2 0 0.5-0.4 5-0.8 9.9-0.4 5-1 11.2-1.7 18.5l-11.3 7.4c-6.1 4.1-11.6 7.1-12.1 6.8-0.6-0.4-0.7-6-0.2-13.7 0.4-7.1 0.9-13.9 1.2-15 0.3-1.2 4.8-4.6 11.7-8.7 6.2-3.7 11.6-6.6 12.2-6.4zm-182.5 35.6c0.5 0 5.8 3.2 11.7 7.1 6 3.9 11.1 7.6 11.5 8.3 0.3 0.6 1 7.3 1.5 14.9 0.6 10.8 0.5 13.7-0.5 13.7-0.6 0-3.6-1.7-6.5-3.7-2.9-2.1-7.8-5.5-16.2-11.5l-1.2-10.6c-0.7-5.9-1.3-12.4-1.3-14.4 0-2.1 0.4-3.8 1-3.8zm58.1 1c0.8 0 6.1 3 11.9 6.6 5.8 3.6 12 7.4 17 10.4v16.5c0 10.4-0.4 16.5-1 16.5-0.6 0-6.9-3.8-14-8.5-7.2-4.6-13.2-8.8-13.4-9.2-0.3-0.4-0.8-7.9-1.2-16.5-0.6-13.2-0.5-15.8 0.7-15.8zm62.7 0.1c1-0.1 1.1 3.3 0.6 16.2-0.3 8.9-0.7 16.3-0.8 16.4 0 0-6.1 4-13.4 8.7-7.2 4.8-13.7 8.6-14.2 8.6-0.6 0-0.9-6-0.5-33.3l13.5-8.3c7.4-4.5 14.1-8.3 14.8-8.3zm57.9 0c0.9-0.1 1 2.3 0.6 8.7-0.3 4.8-0.8 11.1-1.8 19.5l-10.8 7.3c-5.9 4.1-11.3 7.4-12 7.4-0.9 0.1-1-2.2-0.4-10.2 0.4-5.6 1.1-12.2 1.5-14.6 0.7-4.3 1-4.6 11.2-11.3 5.8-3.7 11-6.8 11.7-6.8zm-119.4 38.9c1 0 4.7 1.9 8.5 4.3 3.7 2.3 9.6 6.3 19.3 13.2l-0.1 14.8c0 8.8-0.4 14.9-1 15.2-0.6 0.3-3.9-1.6-7.4-4.2-3.5-2.6-9.3-6.9-19.6-14.3v-5.2c0-2.9-0.3-9.4-0.7-14.5-0.5-8.2-0.4-9.3 1-9.3zm59.9 0.1c1.4-0.1 1.6 0.8 1.2 5.2-0.2 2.9-0.4 9.4-0.4 23.7l-5.3 3.9c-2.8 2.1-9 6.4-13.7 9.6-6.7 4.5-8.6 5.4-9 4.2-0.3-0.9-0.3-8 0.2-30.2l12.6-8.1c7-4.5 13.5-8.2 14.4-8.3z"/>
		<path id="Path 3" class="s2" d="m67.6 130c1 0 7.1 3.2 13.4 7.2 6.3 3.9 11.8 7.6 12.2 8.2 0.4 0.6 0.8 7.7 0.8 15.9 0 13.3-0.2 14.7-1.7 14.7-1 0-6.8-3.5-24.2-15.5l-0.5-7c-0.3-3.8-0.9-10.7-1.2-15.3-0.7-7.6-0.6-8.2 1.2-8.2zm2.2 37c0.4 0 4.1 2.1 8.2 4.7 4.1 2.6 9.5 6.1 12 7.9 2.5 1.7 4.8 4.2 5.2 5.5 0.3 1.3 0.6 7.9 0.7 14.7 0.1 8.9-0.2 12.3-1.1 12.6-0.7 0.2-5.8-2.7-11.3-6.6-5.5-3.8-10.8-7.5-11.8-8.1-1.4-1-1.9-3.6-2.7-14.9-0.6-7.6-0.8-14.2-0.5-14.8 0.4-0.6 0.9-1 1.3-1z"/>
		<path id="Path 4" class="s3" d="m192.7 131c0.7 0 1.5 0.3 1.7 0.8 0.2 0.4 0 6.5-0.4 13.7-0.4 7.2-1.1 13.7-1.4 14.5-0.3 0.8-5.6 4.8-11.6 8.8-6.1 3.9-11.7 7.2-12.5 7.2-1.2 0-1.5-1.6-1.4-9.3 0.1-5 0.4-12.1 1.4-21.9l11.5-6.9c6.3-3.8 12-6.9 12.7-6.9zm-2 37c0.7 0 1.4 0.5 1.6 1 0.1 0.6-0.1 6.5-0.6 13.3-0.4 7.5-1.2 13-2.1 14.2-0.7 1.1-5.8 5.1-11.2 8.9-7.3 5-10.4 6.6-11.9 6.1-1.9-0.6-2-1.1-1.2-13.8 0.5-7.3 1.4-13.8 2-14.6 0.7-0.8 5.9-4.5 11.7-8.3 5.7-3.7 11-6.8 11.7-6.8z"/>
		<path id="Path 5" class="s4" d="m130.3 53.1c0.4-0.1 4.6 1.7 9.4 4 4.9 2.3 10.5 4.9 12.6 5.8 2.9 1.2 3.8 2.1 3.5 3.6-0.2 1.4-3.8 3.8-24.8 14.5l-11.3-5.6c-6.1-3.1-11.8-6.1-12.5-6.8-0.7-0.6-1.4-1.8-1.5-2.6-0.1-1.1 3.6-3.3 11.8-7.2 6.6-3.1 12.3-5.7 12.7-5.7z"/>
	</g>
</svg>