<svg version="1.2" xmlns="http://www.w3.org/2000/svg" viewBox="0 0 261 261" width="261" height="261"><style>.a{fill:#010101}.b{fill:#ed0102}.c{fill:#f9f302}.d{fill:#0167ff}.e{fill:#333433}</style><path class="a" d="m131.5 21.5c1.1 0.1 24 9.9 50.9 21.6 34.1 15 49.2 22 49.8 23.4 0.7 1.4 0.3 8.8-1.2 23.5-1.2 11.8-2.3 23.1-2.6 25-0.2 1.9-1.3 13.2-2.4 25-1.2 11.8-2.4 25.1-2.9 29.5-0.4 4.4-1.1 8.6-1.4 9.3-0.4 0.6-2.9 2.7-5.6 4.4-2.6 1.8-20.3 14.1-39.2 27.4-18.9 13.2-36.9 25.8-39.9 27.8-3.9 2.6-6.2 3.6-7.7 3.2-1.3-0.3-21.1-13.9-44-30.2-23-16.2-42.8-30.5-44-31.7-1.2-1.2-2.5-3.8-2.7-5.7-0.3-1.9-1.2-11.6-2.1-21.5-0.9-9.9-1.7-19.6-2-21.5-0.2-1.9-0.9-9.1-1.5-16-0.6-6.9-1.3-14.8-1.5-17.5-0.3-2.8-0.7-6.6-1-8.5-0.2-1.9-0.7-7.8-1-13-0.5-8.3-0.4-9.8 1.3-11.8 1-1.2 2.6-2.2 3.5-2.2 0.9 0 2.5-0.5 3.5-1.1 0.9-0.5 22-9.7 46.7-20.3 24.8-10.7 45.9-19.2 47-19.1z"/><path class="b" d="m222.3 113c1.4 0 1.7 0.9 1.7 4.5 0 2.5-0.6 9.1-2.5 24.8l-10.5 6.9c-5.8 3.8-11.2 6.9-12 6.8-1.3 0-1.4-1.8-0.7-13.2 0.4-7.3 1-14.2 1.3-15.3 0.3-1.2 4.6-4.5 10.7-8.2 5.6-3.4 11-6.2 11.9-6.3zm-29.5 18c0.7 0 1.5 0.6 1.7 1.2 0.2 0.7 0 6.9-0.5 13.8-0.4 6.9-1 13.2-1.4 14-0.3 0.8-5.1 4.6-10.8 8.3-5.6 3.8-11.1 6.9-12.2 7-1.8 0.2-2-0.5-2.3-6.8-0.1-3.8 0.1-10.8 1.3-23.7l11.5-6.9c6.3-3.8 12-6.9 12.7-6.9zm-32 19c0.7 0 1.5 0.4 1.8 1 0.3 0.6 0.2 7.6-1 30.2l-5.5 4c-3 2.1-8.7 5.9-12.5 8.4-3.9 2.4-7.8 4.4-8.8 4.4-1.5 0-1.7-1.4-1.7-15.3 0-8.3 0.4-15.8 0.8-16.4 0.4-0.7 6.3-4.6 13.2-8.8 6.9-4.1 13.1-7.5 13.7-7.5zm57.5 0.1c1-0.1 2 0.3 2.3 0.9 0.3 0.6 0 5.8-0.5 11.7-0.6 6-1.2 11.7-1.5 12.8-0.3 1.1-4.7 4.9-9.8 8.4-5 3.6-9.9 6.6-10.7 6.9-0.8 0.2-1.8-0.5-2.1-1.5-0.3-1-0.3-7 0-13.5 0.3-6.4 1-12 1.4-12.5 0.5-0.4 5-3.6 10-7 5.1-3.3 10-6.2 10.9-6.2zm-28 18c1 0 1.9 0.5 2.1 1.1 0.2 0.7 0 6.6-0.5 13-0.4 6.5-1.2 12.6-1.7 13.5-0.5 1-5.3 4.9-10.7 8.7-5.5 3.8-10.7 7.1-11.7 7.2-1.1 0.3-1.9-0.4-2.3-1.9-0.3-1.2-0.2-7.7 1.1-26.8l11-7.3c6.1-4.1 11.8-7.4 12.7-7.5zm-31 20.9c1 0 2 0.6 2.2 1.2 0.2 0.7 0.2 6.2-0.1 12.3-0.2 6.1-0.6 12-0.9 13.2-0.2 1.5-3.4 4.4-8.7 8-4.5 3.2-10.2 7.1-12.6 8.8-4.3 3-4.4 3-5.8 1-1.2-1.6-1.3-4.4-0.8-14.5 0.4-6.9 1-13.1 1.4-13.8 0.3-0.6 5.8-4.6 12.1-8.7 6.3-4.1 12.3-7.5 13.2-7.5z"/><path class="c" d="m101 38.6c0.8 0.3 6.1 2.6 11.7 5.2 5.6 2.6 10.5 5.4 10.8 6.2 0.3 0.8 0 2-0.7 2.6-0.7 0.6-6.5 3.4-12.8 6.4-11.1 5.1-11.6 5.2-15 3.9-1.9-0.7-7.1-3.2-11.5-5.5-4.4-2.3-8.3-4.8-8.7-5.6-0.3-0.7-0.3-1.8 0-2.4 0.4-0.6 5.4-3.1 11.2-5.6 5.8-2.5 11.2-4.8 12-5.1 0.8-0.3 2.2-0.3 3-0.1zm60.8 0.4c1.2 0 7 2 13 4.6 5.9 2.5 11.3 5 12 5.7 0.7 0.7 1 1.9 0.6 2.7-0.3 0.8-5.4 3.9-11.2 6.7-5.9 2.9-11.4 5.3-12.2 5.3-0.8 0-6.7-2.4-13-5.4-6.3-2.9-11.8-6.1-12.2-7-0.5-0.9-0.3-2 0.5-2.5 0.6-0.6 5.5-3 10.7-5.5 5.2-2.5 10.5-4.5 11.8-4.6zm-31.3 14.1c0.6 0 6.5 2.5 13.3 5.7 10.2 4.7 12.2 6 12 7.7-0.2 1.4-3.7 3.7-24.8 14.5l-12.2-6.1c-6.8-3.4-12.6-6.6-13-7.3-0.4-0.6-0.9-1.5-1-1.9-0.2-0.4 5.4-3.4 12.2-6.7 6.9-3.2 12.9-5.9 13.5-5.9zm-33.5 15.9c0.8 0 6.9 2.8 13.5 6.1 6.6 3.4 12.3 6.6 12.7 7.3 0.4 0.6 0.8 1.4 0.8 1.8 0 0.5-5.7 3.7-12.7 7.1-7.1 3.5-13.8 6.7-15 7-1.7 0.5-5.5-1-14.8-6.1-6.8-3.7-12.7-7.4-13-8.2-0.3-0.8-0.2-1.8 0.2-2.2 0.5-0.4 6.6-3.4 13.8-6.7 7.2-3.4 13.7-6.1 14.5-6.1zm68 0.1c0.8 0 7.6 3 15 6.7 7.4 3.7 13.6 7.3 13.7 7.9 0.2 0.7-5.3 4.4-12.4 8.3-7.1 3.8-13.6 6.9-14.5 7-1 0-7.1-2.8-13.5-6.1-6.5-3.4-12.5-6.8-13.3-7.5-1.3-1.2-1.2-1.6 0.6-3.6 1.2-1.3 5.3-3.8 9-5.7 3.8-1.8 8.5-4.2 10.4-5.2 1.9-1.1 4.2-1.9 5-1.8z"/><path class="d" d="m38.3 112c0.6 0 3 1.1 5.2 2.4 2.2 1.4 5.4 3.2 7 4.1 1.7 0.8 4.8 2.8 7 4.3 3.8 2.6 4 3.1 4.7 9.2 0.3 3.6 0.7 9.4 0.8 13 0.1 3.6 0.1 7.3 0.1 8.3-0.1 0.9-0.9 1.7-1.8 1.7-1 0-3.4-1-5.4-2.3-2.1-1.2-6.1-3.8-9-5.8-3-2-5.9-4.2-6.6-5-0.6-0.8-1.7-6.3-2.2-12.4-0.6-6-1.1-12.5-1.1-14.3 0-1.9 0.5-3.2 1.3-3.2zm29.3 18c1 0 2.8 0.7 3.9 1.5 1.1 0.9 6 3.9 11 6.8 5.1 3 9.5 6.3 10.2 7.7 0.8 1.7 1.3 7.1 1.3 16.3 0 11.5-0.2 13.7-1.5 13.7-0.8 0-2.7-0.8-4.2-1.9-1.6-1-6.6-4.3-19.8-13l-0.7-7.3c-0.4-4-1.1-11-1.4-15.5-0.7-7.7-0.6-8.3 1.2-8.3zm-24.2 19.4c1.2 0.4 6.3 3.4 11.4 6.9 5.2 3.5 9.4 7.1 9.7 8.2 0.3 1.1 0.8 7.3 1.2 13.8 0.6 9.1 0.5 12.1-0.4 12.8-0.9 0.6-4.3-1.2-11-6-5.4-3.8-10.3-7.5-10.9-8.2-0.7-0.8-1.7-6.8-2.4-13.4-0.7-6.6-0.9-12.6-0.5-13.3 0.5-0.8 1.7-1.1 2.9-0.8zm60.5 1.8c2 1.2 6 3.7 8.9 5.5 2.8 1.8 5.4 3.3 5.7 3.3 0.3 0 2.5 1.3 9.5 6v16c0 14.6-0.2 16-1.7 16-1 0.1-7.3-3.5-14-8-6.8-4.4-12.5-8.3-12.7-8.7-0.2-0.5-0.8-7.5-1.3-15.6-0.7-12.3-0.6-14.9 0.6-15.7q1.4-0.9 5 1.2zm-34.1 15.8c0.9 0 6.8 3.5 13.1 7.8 6.2 4.2 11.8 8.7 12.2 10 0.5 1.2 0.9 7.8 0.9 14.7 0 6.9-0.3 12.7-0.7 12.9-0.5 0.2-2.2-0.3-3.8-1.2-1.7-1-7.2-4.6-21.4-14.7l-0.6-6.5c-0.3-3.6-0.9-9.4-1.3-13-0.4-3.6-0.6-7.3-0.4-8.3 0.2-0.9 1.1-1.7 2-1.7zm32.6 21.6c1.2 0.4 5.7 3.1 10.1 6 4.4 2.9 9.7 6.4 15.5 10.4v14.5c0 8.7-0.4 14.7-1 15-0.5 0.3-3.2-1-5.9-2.8-2.6-1.7-8.4-5.7-20.9-14.2l-0.4-13.5c-0.3-7.4-0.3-14.1 0-14.8 0.3-0.8 1.3-1 2.6-0.6z"/><path class="e" d="m131 24.3l12.2 5.3c6.8 3 12.4 5.4 12.6 5.4 0.1 0 0.2 0.6 0.2 1.2 0.1 0.7-5.6 4-24.9 13.3l-12.6-6c-8-3.8-12.5-6.5-12.3-7.4 0.2-0.7 5.8-3.7 12.5-6.6zm-65.4 28.8c1.1 0 6.9 2.5 13 5.5 6 3.1 11.6 6.3 12.5 7 1.3 1.2-0.5 2.4-13.3 8.4-8.1 3.9-15.3 7-16 7-0.7 0-6.6-3.1-13.2-6.8-6.6-3.7-12-7.3-12-8 0-0.7 6-3.9 13.5-7.1 7.4-3.2 14.4-5.9 15.5-6zm130 0c0.5 0 7.4 2.8 15.3 6.2 9.3 4.1 14.2 6.7 14 7.6-0.2 0.8-5.5 4.2-11.8 7.7-6.4 3.5-12.2 6.4-13 6.4-0.9 0-8-3-15.8-6.7-7.8-3.7-14.3-7.2-14.5-7.8-0.1-0.5 5.5-3.8 12.3-7.1 6.9-3.4 12.9-6.3 13.5-6.3zm-136 31.5l0.6 9c0.4 4.9 0.8 12.7 1 17.2 0.3 6.8 0.1 8.2-1.1 8.2-0.9 0-6.8-3.3-13.3-7.2-10.7-6.6-11.7-7.5-11.8-10.2 0-1.7-0.6-9.1-1.3-16.5-0.8-7.5-1-13.8-0.5-14.2 0.4-0.3 6.6 2.6 26.4 13.7zm167.7-13.5c0.4 0 1.1 0.5 1.4 1.2 0.4 0.7 0.1 6.7-0.6 13.3-0.7 6.6-1.5 13.7-1.9 15.9-0.6 3.5-1.3 4.3-8.4 8.7-4.2 2.7-8.1 4.8-8.5 4.8-0.4 0-1.4 0.7-2.2 1.6-0.9 0.8-2.9 2-7.5 3.5l0.8-15.7c0.5-8.7 1.3-16.7 1.7-17.8 0.4-1.2 5.8-4.9 12.6-8.7 6.5-3.7 12.2-6.7 12.6-6.8zm-96.2 15.2c0.8 0.2 7.9 3.5 15.7 7.5 7.9 4 14.3 7.7 14.3 8.3 0 0.5-1.9 2-4.3 3.3-2.3 1.3-9.1 5.1-25.7 14.7l-5.3-3c-2.9-1.7-8.6-4.8-12.7-7-4.2-2.3-8.7-4.9-10-6-2.1-1.6-2.3-2.2-1.2-3.2 0.7-0.8 7.2-4.4 14.5-8.1 7.2-3.7 13.8-6.6 14.7-6.5zm-66.9 1.8c0.7 0 3.4 1.1 5.9 2.6 2.4 1.4 7.8 4.4 12 6.6 4.1 2.2 8.2 4.7 9.2 5.6 1.5 1.4 1.7 4 1.8 18.7 0 9.3-0.2 17.1-0.5 17.2-0.3 0.1-2.3-0.8-4.4-2-2.1-1.2-8.1-4.8-22.6-13.5l-0.8-10.4c-0.4-5.7-1-13.6-1.4-17.6-0.5-5.8-0.3-7.2 0.8-7.2zm133.1 0.7c0.4 0.3 0.6 4.9 0.3 10.1-0.3 5.3-0.9 13.2-1.3 17.4-0.4 4.3-1.1 7.8-1.5 7.8-0.4 0-6.2 3.3-13 7.4-6.7 4.1-12.6 7.2-13 6.8-0.5-0.4-0.6-8.4 0.4-34.7l13.6-7.7c7.5-4.2 14-7.4 14.5-7.1zm-92.3 21.9c3.6 1.9 10.3 5.7 23.1 12.9v17.7c0 15.1-0.3 17.8-1.5 17.8-0.9 0-5.5-2.5-10.3-5.6-4.8-3-10.8-6.7-18-10.9l-0.6-11c-0.3-6.1-0.7-13.8-0.8-17.1-0.1-3.4 0.2-6.4 0.7-6.8 0.4-0.3 3.8 1 7.4 3zm57.3-2.5c1-0.1 1.8 0.4 1.9 1.1 0 0.7 0 5.8-0.1 11.3 0 5.5-0.3 12.7-1.2 22l-12.6 7.7c-7 4.3-13.7 8-17.2 8.8v-35.1l3.7-2.2c2-1.2 8.2-4.8 13.7-7.9 5.6-3.1 10.9-5.7 11.8-5.7z"/></svg>