<svg version="1.2" xmlns="http://www.w3.org/2000/svg" viewBox="0 0 261 261" width="261" height="261"><style>.a{fill:#010101}.b{fill:#f9f302}.c{fill:#ed0101}.d{fill:#0167fe}.e{fill:#343333}</style><path class="a" d="m131.5 21.5c1.1 0.2 24 9.9 50.9 21.6 29.7 13 49.2 22.1 49.7 23.1 0.6 1.1-1 21.7-4.1 54-2.8 28.8-5.4 53.8-5.8 55.7-0.6 2.8-2.1 4.5-7.7 8.5-3.8 2.7-23.4 16.4-43.5 30.4-20.1 14-37.5 25.8-38.8 26.3-1.2 0.5-3 0.6-4 0.2-0.9-0.4-14.1-9.5-29.2-20.2-15.1-10.7-27.7-19.7-28-20-0.3-0.3-1.3-1-2.2-1.6-0.9-0.6-7.2-4.9-14-9.6-6.8-4.8-13.1-9.5-14-10.5-0.9-1.1-1.9-3.5-2.2-5.4-0.3-1.9-1-9.3-1.6-16.5-0.6-7.2-1.3-15.3-1.6-18-0.2-2.8-0.6-6.6-0.9-8.5-0.2-1.9-0.9-9.1-1.5-16-0.6-6.9-1.3-15-1.6-18-0.3-3-0.7-7.5-0.9-10-0.3-2.5-0.7-8.1-1.1-12.5-0.5-7.4-0.4-8.1 1.7-10 1.2-1.1 23.8-11.3 50.3-22.6 26.5-11.3 49-20.5 50.1-20.4z"/><path class="b" d="m130.5 25c1.1 0 6.9 2.1 13 4.8 8.4 3.7 11 5.3 11 6.8 0 1.4-2.8 3.1-23.5 12.4l-11.8-5.4c-8.4-3.8-11.8-5.8-12-7.2-0.2-1.5 1.9-2.8 10.5-6.6 6-2.6 11.7-4.7 12.8-4.8zm-27.6 14.5c2 0.7 7.3 3.1 11.9 5.4 4.5 2.2 8.4 4.4 8.6 4.8 0.2 0.5-0.1 1.5-0.7 2.3-0.7 0.9-6.3 3.9-12.4 6.8-6.2 2.8-11.9 5.2-12.5 5.2-0.7-0.1-6.3-2.6-12.3-5.8-8.1-4.2-11-6.2-11-7.6 0-1.4 2.3-2.9 9-5.8 5-2.2 10.5-4.5 12.4-5.2 2.7-1.1 4.1-1.1 7-0.1zm61.9 0c2.1 0.7 7.5 2.9 12.2 5 4.7 2 9.2 4.3 10 5.1 1.3 1.2 1.3 1.6 0 2.8-0.8 0.8-5.9 3.7-11.2 6.5-5.4 2.8-10.6 5.1-11.5 5.1-1 0-6.5-2.2-12.3-5-5.8-2.8-11.3-5.7-12.2-6.5-1.1-0.9-1.5-2-1-2.7 0.4-0.7 5.6-3.6 11.5-6.4 10.5-5 11-5.1 14.5-3.9zm-99.3 13.6c1.1-0.1 7.1 2.5 13.3 5.7 7.8 4 11.2 6.2 11.2 7.5 0 1.2-3.6 3.4-12.8 7.8-7 3.3-13.6 6.2-14.7 6.5-1.3 0.3-6.2-2-13.5-6.4-6.3-3.7-11.5-7.4-11.5-8.2 0-0.8 5.1-3.6 13-7.1 7.2-3.1 13.9-5.8 15-5.8zm65.5-0.1c0.3 0 6 2.6 12.8 5.8 10.2 4.7 12.2 6 12 7.7-0.2 1.4-3.7 3.7-24.8 14.5l-11.3-5.6c-6.1-3.1-11.8-6.1-12.5-6.8-0.7-0.6-1.3-1.8-1.2-2.6 0-0.9 2.9-2.9 6.8-4.8 3.7-1.7 9.2-4.3 12.2-5.7 3-1.3 5.7-2.5 6-2.5zm65.3 0c0.4 0 4 1.5 8 3.4 3.9 1.9 9.5 4.4 12.2 5.6 2.8 1.2 5.5 2.7 6.2 3.4 0.9 0.8 0.8 1.6-0.5 3.1-1 1.1-6.1 4.4-11.5 7.3-5.3 2.8-10.3 5.2-10.9 5.2-0.7 0-4.4-1.5-8.3-3.4-3.8-1.9-9.7-4.6-13-6.1-3.3-1.4-6.3-3.2-6.7-3.8-0.4-0.7-0.8-1.5-0.9-2 0-0.4 5.5-3.4 12.3-6.7 6.8-3.3 12.6-6 13.1-6zm-99.8 16.1c1.1-0.1 7.4 2.6 14 6 6.6 3.4 12.3 6.7 12.7 7.3 0.4 0.6 0.8 1.4 0.8 1.8 0 0.5-5.7 3.7-12.7 7.2-7.1 3.5-13.9 6.6-15.3 7-2 0.6-5-0.7-14.5-6-6.6-3.7-12.3-7.2-12.7-7.8-0.4-0.6-0.1-1.7 0.5-2.5 0.7-0.8 6.6-4 13.2-7.2 6.6-3.2 12.9-5.8 14-5.8zm68-0.1c0.6 0 7.2 2.9 14.8 6.5 9.9 4.7 13.7 7 13.7 8.2 0 1.3-3.9 3.9-12.5 8.5-6.9 3.8-13.1 6.8-13.7 6.9-0.7 0-7.3-3.1-14.5-6.8-9.3-4.8-13.3-7.3-13.3-8.6 0-1 1.8-2.7 4.3-4.1 2.3-1.4 7.8-4.3 12.2-6.5 4.4-2.2 8.4-4.1 9-4.1zm-34 17.1c0.6 0 7.4 3.2 15.2 7.2 8.8 4.4 14.3 7.8 14.3 8.7 0 0.9-5.6 4.6-14 9.2-7.7 4.3-14.6 7.8-15.2 7.8-0.7 0-7.5-3.5-15.1-7.8-9.6-5.4-13.8-8.2-13.7-9.5 0-1.2 4-3.7 13.8-8.6 7.5-3.8 14.1-6.9 14.7-7z"/><path class="c" d="m222.3 113c1.5 0 1.7 0.9 1.2 8.8-0.2 4.8-0.8 11.4-2 20.6l-10.3 6.8c-5.6 3.7-11 6.8-12 6.8-1.6 0-1.6-1-0.9-13.7 0.5-7.6 1.4-14.6 2-15.6 0.7-1 5.5-4.5 10.7-7.7 5.2-3.3 10.3-5.9 11.3-6zm-29.6 18c0.7 0 1.5 0.3 1.7 0.7 0.3 0.5 0.1 6.6-0.4 13.8-0.4 7.2-1.1 13.7-1.4 14.5-0.4 0.8-5.7 4.8-11.9 8.8-6.9 4.5-11.8 7.1-12.7 6.7-1.3-0.5-1.4-2.7-0.7-15.3 0.7-13.6 0.9-14.8 3-16.4 1.2-1 4.7-3.1 7.7-4.8 3-1.7 7.3-4.2 9.5-5.6 2.2-1.3 4.6-2.4 5.2-2.4zm-32 19c0.7 0 1.5 1 1.8 2.2 0.3 1.3 0.2 8.4-1 29.3l-13 8.6c-7.2 4.8-13.6 8.5-14.3 8.3-0.9-0.3-1.2-4.3-1.2-15.7 0-10.8 0.3-15.7 1.2-16.8 0.7-0.9 2.9-2.5 4.8-3.6 1.9-1.1 7.3-4.4 12-7.2 4.7-2.8 9.1-5.1 9.7-5.1zm57.9 0.1c1.9-0.1 2 0.4 1.8 5.1-0.2 2.9-0.6 8.7-0.9 12.8-0.4 4.1-0.9 8-1.3 8.6-0.4 0.5-5 4-10.2 7.7-5.2 3.7-10.1 6.7-10.8 6.7-0.6 0-1.4-1-1.6-2.3-0.3-1.2-0.1-7.4 0.4-13.7 0.5-6.3 1.2-11.7 1.6-12 0.3-0.3 4.7-3.3 9.8-6.7 5-3.4 10-6.2 11.2-6.2zm-28.4 18c1 0 1.9 0.4 2 0.9 0.2 0.6 0 6.1-0.3 12.3-0.4 6.1-0.9 12.2-1.3 13.4-0.4 1.4-4.8 5.2-11.4 9.8-5.9 4.2-11.5 7.5-12.5 7.5-1.4 0-1.7-0.9-1.6-6.3 0.1-3.4 0.5-9.9 2-22.7l10.7-7.4c5.9-4 11.5-7.4 12.4-7.5zm-31 20.9c1 0 2 0.6 2.2 1.2 0.2 0.7 0.2 6.2-0.1 12.3-0.2 6.1-0.6 12-0.9 13.2-0.2 1.5-3.4 4.4-8.7 8-4.5 3.2-10.2 7.1-12.6 8.8-4.3 3-4.4 3-5.8 1-1.2-1.6-1.4-3.9-0.9-11 0.3-4.9 0.6-10.7 0.6-12.8 0-2.8 0.7-4.3 2.7-6.2 1.6-1.3 7.1-5.1 12.3-8.4 5.2-3.3 10.3-6 11.2-6.1z"/><path class="d" d="m38.3 112c0.6 0 5.7 2.7 11.2 5.9 5.5 3.3 10.5 6.5 11.2 7.3 0.6 0.7 1.5 7.1 2 14.3 0.5 7.2 0.8 13.6 0.6 14.3-0.2 0.6-1 1.2-1.8 1.2-0.8 0-4.3-1.5-7.7-3.4-3.5-1.9-8.2-5.2-14.8-11.1l-1-11.5c-0.5-6.3-1-12.7-1-14.3 0-1.5 0.5-2.7 1.3-2.7zm29 18c1 0 6.7 3 12.8 6.7 6.2 3.8 11.8 7.7 12.6 8.8 0.9 1.5 1.3 5.8 1.3 16.2 0 12-0.2 14.3-1.5 14.3-0.8 0-6.6-3.3-24-14.8l-0.7-7.4c-0.4-4-1.1-11-1.4-15.6-0.6-7.2-0.5-8.2 0.9-8.2zm-22.4 19.8c1.5 0.9 6.5 4.2 11 7.2 4.8 3.2 8.4 6.3 8.6 7.5 0.2 1.1 0.7 5.6 1.2 10 0.5 4.4 0.7 9.8 0.4 12-0.4 2.4-1.2 4.1-2.1 4.3-0.8 0.1-5.3-2.5-10-5.9-4.7-3.3-9.2-6.6-10-7.4q-1.5-1.4-3-13.8c-1.2-10.1-1.3-12.8-0.2-14 1.1-1.4 1.5-1.4 4.1 0.1zm54.9 0.2c1.2 0 4.8 1.6 8 3.5 3.1 1.9 8.9 5.4 19.7 12l0.3 16.3c0.2 15.6 0.1 16.2-1.8 16.2-1.1 0-7.4-3.6-14-8-6.6-4.4-12.2-8.3-12.4-8.8-0.3-0.4-0.8-7.6-1.2-16-0.7-15.1-0.7-15.2 1.4-15.2zm-30.2 17.1c1.1 0 3.7 1.3 6 2.7 2.2 1.5 6.2 4 8.9 5.7 2.7 1.7 6.3 4.5 11.5 9.5v13.5c0 12.2-0.2 13.5-1.7 13.5-1 0-4.5-1.8-7.8-4-3.3-2.2-8.2-5.7-11-7.8-4.1-3.1-5.1-4.5-5.7-7.7-0.3-2.2-0.9-8.8-1.3-14.8-0.7-10.1-0.7-10.7 1.1-10.6zm31.5 20.9c0.5 0 5.1 2.7 10.2 5.9 5 3.3 10.9 7.1 16.7 11.1v14.5c0 8.7-0.4 14.7-1 15-0.5 0.3-3.6-1.2-6.7-3.2-3.2-2-8.9-6-19.8-14l-0.6-13.4c-0.3-7.4-0.4-14-0.2-14.7 0.3-0.6 0.9-1.2 1.4-1.2z"/><path class="e" d="m33.8 71c0.7 0 4 1.5 7.5 3.4 3.4 1.9 8.9 4.9 18.2 10.2l0.7 10.9c0.4 6.1 0.8 13.8 1 17.3 0.3 5.9 0.2 6.3-1.7 5.9-1.1-0.2-7-3.4-24.3-14.2l-0.6-6.5c-0.3-3.6-0.9-11.1-1.2-16.8-0.5-7.5-0.4-10.2 0.4-10.2zm194.4 1c0.5 0.4 0.3 6.2-0.3 12.7-0.6 6.5-1.4 13.8-1.8 16.2-0.6 4.1-1 4.7-7.1 8.4-3.6 2.2-8.1 4.9-10 6-1.9 1.1-4.6 2.6-6 3.4-2.2 1.1-2.5 1.1-2.8-0.5-0.2-0.9 0.1-8.6 0.7-16.9 0.6-8.4 1.3-15.8 1.6-16.3 0.3-0.5 1.7-1.6 3.2-2.4 1.6-0.7 5.9-3 9.8-5.1 3.8-2.1 8.1-4.4 9.5-5.1 1.4-0.8 2.8-1 3.2-0.4zm-164.1 16c0.8 0 4.8 1.9 8.9 4.2 4.2 2.4 9.3 5.2 11.3 6.3 2.1 1.1 4.9 2.9 6.2 4 2.4 2 2.4 2.3 2.6 19 0.1 9.3-0.2 17.1-0.7 17.3-0.5 0.1-4.4-1.9-8.6-4.5-4.2-2.7-10.1-6.2-18.3-11.2l-0.8-10.3c-0.4-5.7-1-13.6-1.3-17.6-0.5-5.7-0.4-7.2 0.7-7.2zm133.3 1.1c0.6 0.5 0.5 6.3-0.2 16.1-0.7 8.4-1.2 15.9-1.2 16.5 0 0.7-5.6 4.7-12.5 8.8-6.9 4.1-13.3 7.5-14.3 7.5-1.6 0-1.6-1.2-0.8-17.2 0.7-14.4 1.1-17.5 2.5-18.3 0.9-0.5 7-3.9 13.6-7.6 6.5-3.6 12.3-6.3 12.9-5.8zm-98.9 17.9c0.3 0 3.8 1.9 7.7 4.3 4 2.4 10.5 6.1 21.4 12.1l0.2 17.8c0.2 15.2 0 17.8-1.3 17.8-0.8 0-4.5-1.9-8.3-4.2-3.7-2.3-9.7-6.1-13.5-8.5-4-2.6-6.7-5-6.7-6.1 0-0.9-0.3-8-0.7-15.7-0.3-7.7-0.3-14.8 0-15.8 0.4-0.9 0.9-1.7 1.2-1.7zm65 0l0.3 6.8c0.2 3.7 0.1 11.7-0.9 28.7l-12.7 7.7c-7 4.3-13.7 8-17.2 8.8v-35l4-2.5c2.2-1.4 4.1-2.5 4.2-2.5 0.2 0 4.1-2 8.8-4.6 4.7-2.6 9.6-5.3 11-6.1z"/></svg>