<svg version="1.2" xmlns="http://www.w3.org/2000/svg" viewBox="0 0 261 261" width="261" height="261"><style>.a{fill:#f8f202}.b{fill:#0167fe}.c{fill:#ec0101}.d{fill:#ef0103}.e{fill:#ffa000}</style><path  d="m131.5 21.5c1.1 0.2 19.8 8 41.5 17.5 21.7 9.5 43.6 19 48.5 21.1 5.6 2.4 9.5 4.7 10.3 6.1 1.1 1.9 1 5.7-0.8 22.8-1.1 11.3-3.4 34.7-5.1 52-1.6 17.3-3.3 33-3.7 34.9-0.6 2.8-2.1 4.4-7.7 8.5-3.8 2.7-23.4 16.4-43.5 30.4-20.1 14-37.5 25.8-38.8 26.3-1.4 0.6-3.1 0.5-4.7-0.3-1.4-0.7-21.1-14.4-43.8-30.5-22.6-16-42-29.9-42.9-31-1.4-1.4-2.2-6.2-3.8-22.3-1.1-11.3-2.2-22.5-2.4-25-0.3-2.5-1-10.6-1.6-18-0.6-7.4-1.3-14.6-1.5-16-0.3-1.4-1-8.9-1.7-16.7-1.3-13.8-1.2-14.3 0.7-16.3 1.1-1.1 23.8-11.4 50.5-22.9 26.7-11.4 49.4-20.7 50.5-20.6z"/><path class="a" d="m131.5 25.5c1.7 0.2 7.5 2.3 13 4.7 7.6 3.3 10 4.8 10 6.2 0 1.5-2.8 3.2-24 12.8l-11.5-5.4c-8.3-3.9-11.6-6-11.8-7.4-0.2-1.5 1.8-2.8 10.5-6.5 6.6-2.8 12-4.5 13.8-4.4zm-28.7 14c2 0.7 7.4 3.1 11.9 5.4 4.6 2.2 8.5 4.4 8.8 4.8 0.2 0.5-0.1 1.5-0.8 2.4-0.7 0.8-6.3 3.9-12.5 6.7-6.1 2.9-11.8 5.2-12.5 5.2-0.6 0-5.8-2.4-11.5-5.3-5.7-2.8-10.7-5.9-11.2-6.7-0.5-0.8-0.6-2-0.2-2.6 0.4-0.6 6-3.4 12.5-6.2 11.2-4.7 12-4.9 15.5-3.7zm58.9-0.5c1.3 0 7.3 2.1 13.4 4.8 6.1 2.6 11.5 5.5 12 6.5 0.6 1.1 0.5 2-0.4 2.6-0.6 0.5-5.7 3.2-11.2 6-5.5 2.8-10.7 5.1-11.5 5.1-0.8 0-6.7-2.4-13-5.3-6.3-3-11.8-6.1-12.3-7.1-0.4-0.9-0.2-2 0.5-2.5 0.7-0.6 5.6-3 10.8-5.5 5.2-2.5 10.5-4.5 11.7-4.6zm-96.2 14.1c1.1 0 7.1 2.5 13.3 5.7 7.9 4 11.2 6.2 11.2 7.4 0 1.3-3.5 3.5-12.2 7.7-6.8 3.2-13.3 6.1-14.5 6.5-1.7 0.4-5.4-1.2-14.3-6.2-7.9-4.3-12-7.2-11.8-8.2 0.2-0.8 6.1-4 13.3-7.1 7.2-3.2 13.9-5.8 15-5.8zm66.5 0.5c0.8 0.3 6.6 2.9 12.8 5.7 9.3 4.3 11.2 5.5 11 7.2-0.2 1.4-3.7 3.7-24.8 14.5l-11.2-5.6c-6.2-3.1-12.1-6.3-13-7.2-1-1-1.4-2.2-1-2.9 0.4-0.7 6.1-3.7 12.7-6.8 6.6-3 12.7-5.3 13.5-4.9zm63.9-0.6c0.3 0 6.7 2.6 14.1 5.9 8.2 3.6 13.6 6.6 13.8 7.5 0.1 0.9-1 2.4-2.5 3.5-1.6 1-6.7 3.9-11.5 6.5-4.9 2.5-9.4 4.6-10 4.6-0.7 0-7.1-2.7-14.3-6.1-7.2-3.4-13.3-6.7-13.7-7.3-0.4-0.6-0.8-1.4-0.8-1.9-0.1-0.4 5.4-3.4 12.1-6.7 6.8-3.3 12.5-6 12.8-6zm-99.4 16.1c1.1-0.1 7.6 2.8 14.5 6.3 7.3 3.7 12.6 7.1 12.8 8 0.1 1.1-3.5 3.4-12.5 7.9-7.1 3.5-13.8 6.7-15 7-1.7 0.5-5.6-1.1-14.8-6.1-10.2-5.4-12.5-7.1-12.3-8.7 0.2-1.5 3.6-3.6 12.8-8.2 6.9-3.4 13.4-6.2 14.5-6.2zm68-0.1c0.6 0 7.2 2.9 14.8 6.5 9.9 4.7 13.7 7 13.7 8.2 0 1.3-3.9 3.9-12.5 8.5-6.9 3.8-13.1 6.8-13.7 6.8-0.7 0-7.4-3.1-14.8-6.9-7.4-3.8-13.6-7.3-13.7-7.8-0.2-0.4 0.1-1.3 0.5-1.9 0.4-0.6 6.1-3.9 12.7-7.2 6.6-3.4 12.4-6.2 13-6.2zm-33 17.7c1.1 0.3 7.7 3.4 14.8 6.9 7 3.5 13 7 13.4 7.6 0.3 0.8-0.5 2.1-2 3.3-1.4 1.1-8.2 4.9-14.9 8.4-11.1 5.7-12.6 6.2-14.8 5.1-1.4-0.6-7.8-4.2-14.3-7.8-7.3-4.2-11.8-7.4-11.9-8.4-0.1-1.4 3.3-3.5 13.8-8.7 9.1-4.6 14.6-6.8 15.9-6.4z"/><path class="b" d="m34.3 71c0.6 0 5.9 2.7 11.7 6 5.8 3.2 11.4 6.8 12.5 8 1.7 1.9 2.1 4.1 2.6 16.9 0.3 8 0.4 15.2 0.2 15.9-0.2 0.6-0.9 1.2-1.5 1.2-0.7 0-3-1.1-5-2.5-2.1-1.4-4-2.5-4.3-2.5-0.3 0-3.6-2-7.5-4.5-4.4-2.8-7.2-5.3-7.5-6.7-0.3-1.3-0.9-7.3-1.5-13.3-0.5-6-1-12.7-1-14.7 0-2.4 0.5-3.8 1.3-3.8zm37.7 20.8c3.6 1.9 9.4 5.2 13 7.2 3.6 2 6.8 4.3 7.1 5.1 0.4 0.8 0.8 7.9 0.9 15.9 0.1 8 0.1 15.3 0.1 16.3-0.1 0.9-0.7 1.7-1.3 1.7-0.7 0-6.7-3.2-13.3-7.1-6.6-4-12.2-7.4-12.5-7.7-0.3-0.2-1-4.5-1.7-9.6-0.7-5-1.3-12.6-1.5-16.8-0.1-5.9 0.1-7.7 1.2-8.1 0.8-0.2 4.4 1.1 8 3.1zm27.2 16.2c0.7 0 2.6 0.8 4.3 1.8 1.7 1 6.6 3.8 11 6.2 4.4 2.4 9.2 5.1 13.5 8v17c0 10.3-0.4 17.2-1 17.5-0.5 0.3-2.5-0.2-4.2-1.2-1.8-0.9-5.8-3.2-8.8-5.1-3-2-7.9-5-16-10.2l-0.7-15.3c-0.3-8.3-0.3-16 0-16.9 0.4-1 1.2-1.8 1.9-1.8zm-60.5 4c0.5 0 3.1 1.4 5.8 3 2.8 1.6 6.6 3.8 8.5 4.9 1.9 1.1 4.7 3 6.2 4.3 2.6 2.2 2.8 2.9 3.6 15.3 0.5 7.2 0.6 13.6 0.3 14.3-0.3 0.7-1 1.5-1.6 1.7-0.5 0.2-3.2-1.2-6-3-2.7-1.9-5.9-3.8-7-4.4-1.1-0.5-3.7-2.4-9.5-7.6l-1.1-13c-0.5-7.2-0.8-13.6-0.5-14.3 0.3-0.6 0.9-1.2 1.3-1.2zm29.1 18c0.9 0 6.7 3.1 12.7 6.8 6.2 3.9 11.5 7.9 12.2 9.2 0.8 1.6 1.3 7.4 1.3 16.2 0 11.6-0.2 13.8-1.5 13.8-0.8 0-6.6-3.3-24-14.8l-1.3-12.4c-0.7-6.7-1.2-13.8-1.2-15.6 0-2.4 0.4-3.2 1.8-3.2zm-26.3 18c0.3 0 2.4 1.3 4.8 2.9 2.3 1.5 7.3 4.8 11 7.2 3.9 2.5 7 5.3 7.2 6.4 0.2 1.1 0.7 5.2 1 9 0.4 3.8 0.9 9 1.1 11.5 0.4 3.3 0.1 4.8-1.1 5.7-1.2 1.1-2.9 0.3-10.2-4.8-4.9-3.4-9.7-6.9-10.8-7.9-1.6-1.5-2.3-4.2-3.4-14.2-0.8-6.8-1.1-13.1-0.8-14.1 0.4-0.9 0.9-1.7 1.2-1.7zm58.2 1c0.5 0 6.9 3.8 27.8 16.6l0.3 16.2c0.2 15.6 0.1 16.2-1.8 16.2-1.1 0-7.3-3.5-13.8-7.8-6.4-4.3-12-8.5-12.4-9.5-0.5-0.9-1.1-7.7-1.5-15-0.3-7.2-0.3-14 0-15 0.4-0.9 1-1.7 1.4-1.7zm-29.5 18c0.7 0.1 6.5 3.6 12.7 7.8 9.6 6.4 11.6 8.2 12.3 10.9 0.4 1.8 0.7 8.6 0.6 15-0.3 9.8-0.6 11.8-1.8 11.7-0.8 0-6-3.2-11.5-7.1-5.5-3.9-10.6-7.7-11.2-8.4-0.8-0.8-1.7-6.9-2.4-14.4-0.6-7.2-0.8-13.6-0.5-14.3 0.3-0.6 1.1-1.2 1.8-1.2zm31.1 21c0.7 0 6.4 3.5 12.7 7.7 6.3 4.2 12.1 7.8 12.8 7.9 0.9 0.3 1.1 4.1 0.9 15.6-0.1 8.9-0.6 15.3-1.2 15.5-0.5 0.2-6.6-3.6-26-17.3l-0.6-13.9c-0.4-7.7-0.5-14.3-0.2-14.8 0.2-0.4 0.9-0.7 1.6-0.7z"/><path fill-rule="evenodd" class="c" d="m227.3 72.1c0.4 0 1 0.6 1.4 1.4 0.5 0.9 0.3 2.1-0.4 2.8-1 0.9-1.6 0.9-2.8-0.3q-1.6-1.5-2.6-0.5c-0.7 0.7-0.6 1.7 0.3 3.3 0.9 1.6 1.9 2.1 3.3 1.8 1.9-0.5 2-0.3 1.2 6.2-0.5 3.7-1 8.1-1.2 9.7-0.3 1.7-0.7 3.1-1 3.3-0.3 0.1-0.9 0-1.5-0.3-0.6-0.3-1-1.4-1-2.5 0-1.1 0.6-3.1 1.2-4.5 1.1-2 1-2.8 0-3.8-1-1-1.2-0.8-1.2 1.1 0 1.3-0.6 2.2-1.5 2.2-0.8 0-1.5 0.9-1.5 2q0 2-2 2c-1.7 0-2 0.7-2 5 0 3.1 0.5 5.1 1.2 5.4 0.7 0.2 1.9-0.3 2.5-1 0.7-0.8 1-1.6 0.5-1.9-0.4-0.3 0.5-0.4 2.1-0.3 1.5 0.2 2.8 0.6 3 1 0.1 0.3-1.4 1.7-3.3 3-1.9 1.3-5.9 3.8-8.8 5.6-2.8 1.8-5.6 3.1-6.2 3-0.6-0.2-0.5-1.3 0.3-2.8 0.8-1.4 1.2-3.1 1-3.7-0.2-0.7-0.7-1.3-1.3-1.3-0.6 0-1 1.2-0.9 5.5l-2.2-2c-1.1-1.1-2.4-1.9-2.8-1.7-0.3 0.1-0.7-1.8-0.9-4.3-0.1-2.5 0.1-4.7 0.5-4.9 0.5-0.2 0.7-2.6 0.6-5.3-0.1-2.6 0-6 0.2-7.5 0.3-1.8 1.7-3.5 3.7-4.8 1.8-1.1 3.6-2 4-2 0.5 0 0.8 0.7 0.8 1.5 0 0.8 0.7 1.5 1.5 1.5 0.8 0 1.5 0.5 1.5 1 0 0.6-0.7 1.2-1.5 1.5-0.8 0.3-1.7 0.1-2-0.5q-0.5-1-2.5 0c-1.1 0.6-1.9 1.2-1.8 1.5 0.2 0.3 2.2 0.7 4.5 1 3.8 0.4 4.3 0.3 4.3-1.5 0-1.1 0.4-2 1-2 0.6 0 0.8-0.4 0.5-1-0.3-0.5 0.5-2 1.7-3.2 1.4-1.5 2.3-1.9 2.5-1 0.2 0.6 0.7 1.2 1.3 1.2 0.6 0 1-0.7 1-1.5 0-1.1-0.7-1.3-2.3-0.9-1.2 0.3-2.8 0.6-3.5 0.7-0.6 0.1-1.2 0.4-1.2 0.7 0 0.3-0.7 0.5-1.5 0.5-0.8 0-1.5-0.3-1.5-0.7 0-0.5 0.8-1.1 1.7-1.5 1-0.3 2.9-1.4 4.2-2.2 1.4-0.9 3.9-2.1 5.5-2.7 1.7-0.7 3.4-1.2 3.8-1.3zm-30.9 17c1.5-0.1 1.7 0.8 1.5 7.3-0.2 4.1-0.5 7.6-0.8 7.9-0.3 0.3-1.7 0.3-3.3 0.1-1.5-0.2-2.7-1-2.7-1.9 0-0.8 0.4-1.5 1-1.5 0.5 0 0.8-0.4 0.5-1-0.3-0.5 0.2-1 1-1 0.8 0 1.5-0.4 1.5-1 0-0.5-1.4-1-3-1-1.7 0-3-0.4-3-1 0-0.5-0.7-0.3-1.5 0.5-0.8 0.8-1.5 2-1.5 2.5 0 0.6-0.7 0.8-1.5 0.5-0.9-0.3-2 0.5-2.8 2-0.6 1.4-1.5 2.5-2 2.5-0.4 0-0.9-0.3-1.1-0.7-0.3-0.5-1.9-0.6-3.8-0.4-2.3 0.2-3 0-2.3-0.8 0.5-0.6 5.7-3.7 11.5-7 5.8-3.3 11.3-6 12.3-6zm-25.2 29.4c0.4 7.2 0.7 13.1 0.8 13.3 0 0.1 0.5 0 1.1-0.3 0.5-0.3 1-2.1 1-4 0-1.9 0.4-3.7 1-4 0.5-0.3 1.2 0.4 1.5 1.5 0.3 1.2 1.3 2 2.5 2 1.1 0 2.7 0.7 3.5 1.5 1.3 1.3 1.1 1.8-2.3 3.8-2 1.3-4.7 2.9-6 3.5-1.2 0.7-2.4 1.2-2.7 1.2-0.3 0-0.5-0.8-0.5-1.7 0-1-0.7-2.8-1.5-4-1.1-1.8-1.4-4.7-1.2-12.1 0.1-5.3 0.7-10.6 1.2-11.7 0.7-1.5 1.2 1.5 1.6 11zm24.9-12c0.5 0.6 0.6 4.4-0.5 16.7l-10 6.1 0.7-2.4c0.4-1.4 0.2-3-0.5-3.8-1-1.2-0.6-1.3 2.5-0.8 3.1 0.6 3.7 0.4 3.3-0.8-0.3-0.8-1.5-1.8-2.8-2.1-1.2-0.4-2.8-0.4-3.5 0-0.8 0.4-1.2-0.5-1.3-2.8-0.1-1.9 0.3-3.8 0.8-4.1 0.6-0.3 1.1-1.5 1.2-2.6 0.1-1.3 0.8-1.9 2.6-1.9 2.2 0 2.5 0.4 2.5 3.8 0 2 0.5 4.4 1 5.2 0.5 0.8 1 1.1 1.1 0.5 0-0.5 0.4-0.1 0.9 1 0.6 1.3 0.7 0.5 0.3-2.5-0.3-2.5-0.3-5.8 0.1-7.5 0.4-1.9 1-2.6 1.6-2zm-33.8 1.6c1.6-0.1 1.8 1.1 1.7 12.7 0 7-0.4 14.7-0.7 17.1-0.6 3.9-1.3 4.8-5.2 7.3-2.5 1.5-5.9 3.5-7.5 4.3-1.7 0.9-4.8 2.9-7 4.5-2.2 1.6-4.3 2.9-4.8 3-0.4 0 0-1.1 0.8-2.5 0.8-1.4 1.5-2.7 1.5-3 0-0.3-0.7-0.5-1.5-0.5-1.2 0-1.5-1.9-1.5-11 0-10.3 0.1-11 2-11 1.9 0 2 0.7 2 11 0 10.2 0.1 11 1.9 11 1.1 0 2.7-0.7 3.5-1.5 0.9-0.8 1.7-1.4 1.9-1.2 0.1 0.1-0.5-0.6-1.5-1.5-1-1-1.8-2.5-1.8-3.3 0-0.8-0.5-1.5-1-1.5-0.6 0-0.9-2.7-0.5-13.5l3.7-0.2c3-0.2 3.8-0.7 3.8-2.3 0-1.1-0.5-2-1-2-0.6 0-1-1.3-1-3 0-2.4 0.4-3 2.2-3 1.3 0 2.8 0.5 3.5 1.2 1 1.1 1.5 1 2.8-0.2 0.9-0.8 1.6-1.7 1.5-2 0-0.3-0.7-1.3-1.5-2.2-1.4-1.6-1.7-1.7-4-0.3-1.4 0.8-2.5 1.3-2.5 1 0-0.3-0.9 0.4-2 1.5-1.1 1.1-1.7 2.6-1.4 3.3 0.6 0.9 0.4 0.9-0.7-0.1-0.8-0.7-2-1.2-2.7-1.2-0.7 0-1 0.9-0.7 2.3 0.2 1.2-0.1 2.8-0.8 3.5-0.7 0.7-2 1.3-3 1.2-0.9 0-2.1 0.8-2.6 1.8-0.4 0.9-1.2 6.6-1.6 12.7-0.4 6.1-0.7 12-0.6 13.3 0.1 1.3-0.5 2.2-1.4 2.2-1.3 0-1.5-2.3-1.4-14.7 0-8.2 0.4-15.5 0.9-16.3 0.4-0.8 3.8-3.4 7.6-5.6 3.8-2.3 9.6-5.8 12.9-7.7 3.3-2 6.8-3.6 7.7-3.6zm60 4.9c1 0 1.8 0.7 1.8 1.5 0 0.8-0.5 1.5-1 1.5-0.6 0-0.8-0.4-0.5-1 0.3-0.5-0.2-0.8-1-0.5-0.8 0.3-1.5 1.2-1.5 2 0 0.8 0.6 1.7 1.2 1.8 1 0.3 0.9 0.8-0.2 2.1-1.2 1.4-1.3 1.9-0.2 2.9 1 0.9 1.2 0.8 1.2-0.8 0.1-1.8 0.1-1.9 1-0.2 0.6 0.9 0.8 2.6 0.5 3.7-0.3 1.1-1 2-1.5 2-0.6 0-1.3-1-1.6-2.2-0.5-2.2-0.7-2.2-2.5 1-1.6 2.8-1.7 3.6-0.7 6.2 0.7 1.7 1.6 3 2 3 0.5 0 0.8-0.7 0.8-1.5 0-0.8 0.8-1.8 1.7-2.1 1.5-0.5 1.7-0.2 1.1 1.8-0.4 1.2-0.8 3.5-0.8 5.1 0 2.3-1.3 3.6-9.8 9-5.3 3.5-10.5 6.7-11.5 7-0.9 0.4-2 0.2-2.4-0.5q-0.8-1.3 0.5-0.5 1.2 0.7 1.8-2c0.5-2.1 0.2-3.1-1.1-3.8-1.6-0.9-1.7-1.9-1-8 0.4-3.8 0.9-8.6 1.1-10.5 0.2-1.9 0.9-4 1.6-4.7 0.7-0.6 5.3-3.7 10.3-6.7 4.9-3.1 9.8-5.6 10.7-5.6zm-19.6 3.3c1.1-0.1 2.1 0.2 2.2 0.8 0.1 0.5-0.5 1.1-1.3 1.4-0.8 0.3-1.7 0.5-2 0.5-0.3 0-0.6-0.6-0.7-1.3-0.1-0.7 0.7-1.3 1.8-1.4zm-9.9 14.7c0.7 0 1.5 0.6 1.7 1.3 0.2 0.6 0 7.1-0.5 14.2-0.5 7.2-1.3 13.4-1.8 14-0.5 0.6-3.6 2.9-7 5.3-3.3 2.3-6.6 4.2-7.1 4.2-0.6 0-1 0.3-1 0.8 0 0.4-1.9 1.8-8.5 5.4l1.7-2.6c1.5-2.1 1.6-2.9 0.5-4.2-0.9-1.2-1.3-1.2-1.9-0.2-0.5 0.9-0.9 0.8-1.4-0.7-0.4-1.1-0.3-6.9 1.1-23.8l11.5-6.8c6.3-3.8 12-6.9 12.7-6.9zm26.8 18.4c0.6 0.2 0.9 3.8 0.6 9.2-0.2 4.9-0.7 9.9-1.2 11.2-0.5 1.2-0.7 3.1-0.4 4.2 0.3 1.3-0.3 2.7-1.8 4-1.2 1.1-2.7 2-3.2 2-0.6 0-1.1-2.4-1.3-5.2-0.1-2.9 0.2-6 0.8-6.8 0.7-1.1 1-0.4 1.1 3 0.1 2.9 0.3 3.6 0.7 2 0.4-2.3 0.5-2.4 1.3-0.5 0.5 1.3 0.7-0.4 0.5-4.5-0.1-3.6-0.5-7.1-0.9-7.7-0.6-1-1.2-1-3.3 0-2.6 1.2-2.6 1.4-2 8.5 0.6 6.6 0.4 7.2-1.4 7.7-1.2 0.3-2 1.3-2 2.5 0 1.1 0.7 2 1.5 2 0.8 0 1.5 0.4 1.5 1 0 0.6-2.1 2.5-4.8 4.4-2.6 1.9-5.8 3.6-9.7 4.1l0.3-11c0.2-6.1 0.8-12.3 1.3-14 0.7-2.3 3.4-4.6 11.2-9.7 5.6-3.7 10.6-6.6 11.2-6.4zm-58.8 0.7c2.3-0.1 2.3-0.1 1.6 12.7-0.4 9.2-1 13.1-2 14.2-1.3 1.2-1.9 1.3-3.4 0.3-1.6-1.1-2.2-1-3.4 0.2-1.1 1.1-1.2 1.9-0.5 3 0.5 0.8 0.7 2.3 0.4 3.3-0.5 1.5-0.3 1.4 1.5-0.3 1.1-1.1 1.8-2.3 1.6-2.7-0.3-0.5 0.4-0.6 1.5-0.3 1.1 0.3 2 1 2 1.5 0 0.6-1 1.5-2.3 2.1-1.2 0.7-4.7 3.1-7.7 5.4-3 2.3-6.6 4.5-8 5-1.4 0.4-3.3 1.5-4.2 2.4-1.1 0.9-2.4 1.3-3.3 0.9-1.3-0.7-1.5-3.4-1-32.3l8-4.7c4.4-2.5 10-6 12.5-7.6 2.5-1.7 5.5-3 6.7-3.1zm29.5 18c1-0.1 2 0.5 2.1 1.2 0.2 0.6 0.1 3.7-0.2 6.7-0.3 3-1 5.3-1.5 5-0.5-0.3-1.1 0.2-1.3 1-0.4 1.3-0.3 1.3 0.5 0 0.7-1.1 1.1-1.2 1.6-0.2 0.3 0.6 0.3 4 0 7.5-0.4 3.4-1.2 6.8-1.8 7.5-0.6 0.7-1.4 1.3-1.9 1.2-0.4 0-0.9-0.7-1.2-1.5-0.3-0.8 0.1-2.4 0.7-3.5 1-1.6 1-2.4 0-4-0.6-1.1-1.2-2.7-1.2-3.5 0-0.8-0.5-1.5-1-1.5-0.6 0-1 0.9-1 2 0 1.1 0.4 2.2 1 2.5 0.5 0.3 1 1.2 1 2 0 0.8-0.7 1.5-1.5 1.5-0.8 0-1.5 0.9-1.5 2 0 1.8-0.7 2-7 2-3.9 0-7.7 0.2-8.5 0.5-1.3 0.4-1.5-0.7-1.3-6.7 0.3-7 0.4-7.3 2.8-7.6 2-0.2 2.2-0.1 1 0.7-0.8 0.6-1.3 1.1-1 1.2 0.3 0 1.5 0.2 2.7 0.5 1.6 0.3 2.3-0.1 2.3-1.1 0-0.8 0.6-1.7 1.2-2 1-0.4 1-0.6 0-1-0.6-0.3-1.2-0.9-1.2-1.5 0-0.6 3.3-3.2 7.2-5.9 4-2.8 8.1-5 9-5zm-31.2 19.9c0.3 0 1.1 0.5 1.8 1.2 0.9 0.9 1.1 3.2 0 15.3l-4.4-0.5c-4.1-0.5-4.4-0.3-4.4 1.8 0 1.2-0.5 2.2-1 2.2-0.6 0-1-0.9-1-2 0-1.1-0.5-2-1-2-0.6 0-1 1.6-1 3.5 0 1.9-0.6 3.8-1.3 4.1-0.6 0.3-1.7 0.1-2.2-0.5q-1-1.1 0.3-2.3c0.7-0.7 1.2-2.1 1.2-3 0-1.1-0.8-1.8-2-1.8-1.8 0-2.1 0.9-2.6 7.8-0.3 4.2-0.6 8.6-0.8 9.7-0.2 1.1-0.4-1.3-0.5-5.2 0-4.1-0.5-7.3-1.1-7.3-0.6 0-1 3.1-1 7.3 0 3.9-0.3 8.1-0.5 9.2-0.3 1.1-0.2 2.6 0.2 3.3 0.5 0.7 1.6 1 2.5 0.7 1.4-0.4 1.6-0.9 0.8-2.5-0.6-1.1-0.9-2.2-0.8-2.5 0.2-0.3 1.5-0.1 3 0.5 1.6 0.5 2.8 1.5 2.8 2 0 0.6-1.9 2.3-4.3 3.8-2.3 1.6-5.2 3.2-6.5 3.5-1.9 0.6-2.3 0.3-2.8-3-0.4-2.1-0.2-7.4 0.5-11.8 0.6-4.4 0.8-9.3 0.5-11-0.5-2.4-0.2-3.4 1.7-4.8 1.3-1 7.1-4.9 12.9-8.7 5.8-3.8 10.7-6.9 11-7zm14.1 11.5c0.5 0.3 0.7 1.2 0.4 2-0.3 0.9 0.3 1.7 1.5 2 1.1 0.3 2 1 2 1.5 0 0.6-2 2.4-4.5 4-2.5 1.7-5.2 3-6 3-1 0-1.5-0.9-1.4-2.7 0-1.6 0.3-3.5 0.7-4.3 0.4-0.8 1.4-1.6 2.2-1.8 0.8-0.2 2.1-1.2 2.9-2.2 0.7-1.1 1.7-1.8 2.2-1.5zm7.3-0.2c2.3-0.1 4.3 0.3 4.4 0.8 0.1 0.5-1.2 1.6-2.8 2.4-1.7 0.8-3.2 1.5-3.5 1.5-0.3 0-0.2-0.6 0.2-1.2 0.3-0.7-0.1-1.7-0.9-2.3-1.1-0.8-0.5-1 2.6-1.2zm-22.8 17.7c0.8 0 1.4 0.5 1.4 1 0 0.6-2.3 2.5-5 4.3-2.8 1.7-5.3 3-5.5 2.7-0.3-0.3-0.4-1.2-0.2-2.1 0.2-1 1.7-1.9 3.5-2.3 1.8-0.3 3.5-1.3 3.8-2.1 0.3-0.8 1.2-1.5 2-1.5z"/><path class="d" d="m223.8 75c0.4 0 1.6 0.7 2.7 1.5 1.3 0.9 1.7 2 1.2 3-0.4 0.8-1.3 1.5-2 1.5-0.6 0-1.8-0.9-2.5-2-0.6-1.1-1-2.5-0.7-3 0.4-0.5 0.9-1 1.3-1zm-3.1 3c0.7 0 1.3 0.7 1.3 1.5 0 0.8-0.5 1.5-1 1.5-0.6 0-1.3-0.5-1.7-1.2-0.4-0.8-1.2-0.5-2.5 1-1 1.2-1.6 2.7-1.3 3.2 0.3 0.5 0 1-0.5 1-0.6 0-1 0.9-1 2 0 1.8-0.5 1.9-4.3 1.5-2.3-0.3-4.3-0.7-4.5-1-0.1-0.3 0.7-1 1.8-1.5q2-1 2.5 0c0.3 0.5 1.2 0.8 2 0.5 0.8-0.3 1.5-1 1.5-1.5 0-0.5-0.7-1-1.5-1-0.8 0-1.5-0.9-1.5-2 0-1.6 0.5-1.9 2.5-1.5 1.4 0.3 2.5 0 2.5-0.5 0-0.5 0.3-0.8 0.7-0.6 0.5 0.3 1.5 0.1 2.3-0.5 0.8-0.5 2.1-0.9 2.7-0.9zm3.5 10.7c1 1 1.1 1.8 0 3.8-0.6 1.4-1.2 3.4-1.2 4.5 0 1.1 0.7 2.2 1.5 2.5 0.8 0.3 1.5 1.3 1.5 2.3 0 1.3-0.7 1.6-3.3 1.4-1.7-0.1-2.9 0-2.5 0.3 0.5 0.3 0.2 1.1-0.5 1.9-0.6 0.7-1.8 1.2-2.5 1-0.7-0.3-1.2-2.3-1.2-5.4 0-4.3 0.3-5 2-5q2 0 2-2c0-1.1 0.7-2 1.5-2 0.9 0 1.5-0.9 1.5-2.2 0-1.9 0.2-2.1 1.2-1.1zm-35.6 7.4c0.2 0.5 1.7 0.9 3.4 0.9 1.6 0 3 0.5 3 1 0 0.5-0.7 1-1.5 1-0.8 0-1.3 0.5-1 1 0.3 0.5 0.1 1-0.5 1-0.6 0-1 0.6-1 1.3 0 0.6 1.3 1.5 3 2 1.6 0.4 3 1.2 3 1.7 0 0.5-0.4 0.8-1 0.5-0.6-0.3-1.3 0.7-1.6 2.3-0.4 1.5-0.4 4.7-0.1 7.2 0.4 3 0.3 3.8-0.3 2.5-0.5-1.1-0.9-1.5-0.9-1-0.1 0.5-0.6 0.3-1.1-0.5-0.5-0.8-1-3.2-1-5.2 0-3.4-0.3-3.8-2.5-3.8-1.8 0-2.5 0.5-2.5 2 0 1.1-0.4 2.2-1 2.5-0.6 0.3-1 2.1-1 4 0 2.5 0.4 3.3 1.2 2.9 0.7-0.4 2.3-0.4 3.5 0 1.3 0.3 2.5 1.3 2.8 2.1 0.4 1.2-0.2 1.4-3.3 0.8-3.1-0.5-3.5-0.4-2.4 0.8 0.9 1 0.9 2.1 0.2 4.2-0.6 1.7-1.5 2.5-2.5 2.2-0.8-0.3-1.5-0.9-1.5-1.5 0-0.6-1.1-1-2.5-1q-2.5 0-3-2c-0.3-1.1-0.9-1.8-1.5-1.5-0.6 0.3-1 2.1-1 4 0 1.9-0.4 3.7-1 4-0.6 0.3-1.2-1-1.5-2.7-0.3-1.8-0.5-7.8-0.5-13.3 0-6.8-0.3-9.5-1-8.5-0.5 0.8-1 1-1 0.5 0-0.5 0.5-1.7 1.2-2.6 0.7-0.9 2.8-1.8 4.6-2 1.9-0.2 3.5-0.1 3.8 0.4 0.2 0.4 0.7 0.7 1.1 0.7 0.5 0 1.4-1.1 2-2.5 0.8-1.5 1.9-2.3 2.8-2 0.8 0.3 1.5 0 1.5-0.5 0-0.5 0.5-1.6 1.1-2.4 0.6-0.8 1.3-1 1.5-0.5zm18.4 11.9c0.6 0 1.1 0.6 1.3 1.3 0.2 0.6-0.2 2.3-0.9 3.7-0.7 1.4-1.1 2.7-0.9 3 0.1 0.3-1.2 0.5-3.1 0.5-3.2 0-3.4-0.2-3.4-3.2q0-3.3 1.3-3c0.8 0.1 2.1 0.9 3.1 1.7 1.5 1.4 1.7 1.3 1.6-1.2 0-1.6 0.4-2.8 1-2.8zm-50.1 5c0.4 0 1.2 1 1.9 2.2 1.2 2 1.1 2.5-0.2 3.8-1.3 1.2-1.8 1.3-2.8 0.2-0.7-0.7-2.3-1.2-3.6-1.2-1.8 0-2.2 0.6-2.2 3 0 1.7 0.4 3 1 3 0.6 0 1 0.9 1 2 0 1.6-0.8 2.1-7.5 2.5l-0.3 6.8c-0.1 4 0.2 6.7 0.8 6.7 0.6 0 1 0.7 1 1.5 0 0.8 1 2.4 2.2 3.6 1.3 1.1 1.6 1.7 0.8 1.2-1.1-0.6-1.3-0.4-0.7 1 0.4 1 0.2 2-0.5 2.5q-1.3 0.7-0.5-0.5c0.5-1 0-1.1-5.3 0.2v-11.2c0-10.6-0.1-11.3-2-11.3-1.9 0-2 0.7-2 11 0 9.1 0.3 11 1.5 11 0.8 0 1.4 0.3 1.2 0.8-0.1 0.4-0.9 2-1.7 3.5-0.8 1.5-2.1 2.7-2.8 2.7-0.6 0-1.4-0.4-1.7-1-0.3-0.6-0.1-1 0.5-1 0.6 0 1-1 0.9-2.2-0.1-1.3 0.2-7.2 0.6-13.3 0.4-6.1 1.2-11.8 1.6-12.7 0.5-1 1.7-1.8 2.6-1.8 1 0.1 2.3-0.5 3-1.2 0.7-0.7 1-2.3 0.8-3.5-0.3-1.4 0-2.3 0.7-2.3 0.7 0 1.9 0.5 2.7 1.2 1.1 1 1.3 1 0.7 0.1-0.3-0.7 0.2-2.1 1.2-3 1-1 2.4-1.9 3.2-2.1 0.8-0.2 1.9-0.8 2.4-1.3 0.6-0.5 1.2-0.9 1.5-0.9zm65.8 1.1c0.1-0.1 0 0.4-0.2 0.9-0.3 0.5-0.1 1 0.5 1 0.6 0 1 1.7 1 3.8 0 2.7-0.3 3.3-1 2.2-0.8-1.2-1-1.2-1 0.5 0 1.6-0.2 1.7-1.2 0.8-1.1-1-1-1.5 0.2-2.9 1.1-1.3 1.2-1.8 0.2-2.1-0.6-0.1-1.3-0.9-1.4-1.7-0.1-0.8 0.5-1.7 1.3-1.9 0.7-0.3 1.5-0.6 1.6-0.6zm-2.2 11.9c0.5 1.2 1.3 2 1.7 2 0.5 0 0.8 0.9 0.8 2 0 1.1-0.7 2.2-1.5 2.5-0.8 0.3-1.5 1.2-1.5 2 0 0.8-0.3 1.5-0.8 1.5-0.4 0-1.3-1.3-2-3-1-2.5-0.9-3.5 0.5-6 1.7-2.9 1.8-2.9 2.8-1zm-51.5 4.5c0.5 0.6 1.4 2.5 2 4.3 0.9 2.9 0.8 3.2-1 3.2-1.7 0-2-0.7-2-4.3q0-4.2 1-3.2zm30.4 18.1c0.8 0.4 1.5 1.2 1.6 2 0 0.8-0.2 2.1-0.5 2.9-0.3 0.8-0.9 1.3-1.5 1-0.6-0.3-1-1.8-1-3.5-0.1-2.2 0.3-2.8 1.4-2.4zm16.1 11.6c0.5 0.5 1.1 3.9 1.2 7.6 0.1 4.3-0.1 6-0.6 4.7-0.8-1.9-0.9-1.8-1.3 0.5-0.4 1.6-0.6 1-0.7-2-0.1-3.9-0.3-4.2-1.3-2.5-0.6 1.1-0.9 4.4-0.7 7.2 0.2 3 0 5.4-0.6 5.6-0.6 0.2-1.8 0.2-2.8 0-0.9-0.1-1.7-1.2-1.7-2.3 0-1.2 0.8-2.2 2-2.5 1.8-0.5 2-1.1 1.4-7.8-0.6-6.8-0.5-7.3 1.7-8.3 1.5-0.7 2.7-0.8 3.4-0.2zm-44.9 8.8c1.3 1.3 1.4 1.8 0.2 3.8-0.7 1.2-1.5 2.2-1.8 2.2-0.3 0-0.6-0.6-0.6-1.3-0.1-0.6-0.5-2.1-1-3.2-0.6-1.5-0.5-1.8 0.4-1.3 0.7 0.5 1.2 0.3 1.2-0.5 0-0.8 0.4-0.8 1.6 0.3zm-15.9 7c0.2 0 1.3 0.6 2.4 1.2 1.7 1 2.2 1 2.5 0 0.2-0.6 0.8-1.2 1.4-1.2 0.6 0 1 1 1 2.2 0 1.3-0.3 2.6-0.7 3-0.5 0.4-1.8 0.3-3.1-0.2-1.2-0.6-2-0.7-1.7-0.3 0.2 0.5-0.5 1.7-1.6 2.8-1.8 1.7-2 1.8-1.5 0.2 0.3-0.9 0.2-2.4-0.4-3.2-0.7-1-0.6-2 0.2-3 0.7-0.8 1.4-1.4 1.5-1.5zm18.3 3c0.3 0 1.2 0.5 2 1.1 1.1 0.8 1.2 1.2 0.2 1.5-0.6 0.2-1.2 1.1-1.2 1.9 0 1-0.7 1.4-2.3 1.1-1.2-0.3-2.4-0.5-2.7-0.5-0.3-0.1 0.2-0.6 1-1.1 0.8-0.5 1-1 0.5-1-0.6 0-0.4-0.7 0.4-1.5 0.9-0.8 1.8-1.5 2.1-1.5zm12 5c0.6 0 1.1 0.7 1.2 1.5 0.1 0.8 0.7 2.4 1.2 3.5 0.8 1.5 0.8 2.5-0.2 4-0.8 1.4-0.9 2.6-0.2 4 0.6 1.1 0.7 2.1 0.2 2.3-0.4 0.2-3.2 0.2-6.2 0.1-3.5-0.2-5 0.1-4 0.6 0.8 0.5 1.5 1.8 1.5 3 0 1.1-0.1 2-0.3 2-0.1 0-1.3-0.4-2.7-1-1.4-0.6-2.3-1.4-2-2 0.3-0.6 0.3-1.4 0-2-0.3-0.6-1.6 0.1-3 1.5-1.4 1.4-3.2 2.3-4 2-0.8-0.3-1.5-1.6-1.5-3 0-1.5 0.8-2.9 2-3.5 1.1-0.6 5.1-1 9-1 6.3 0 7-0.2 7-2 0-1.1 0.7-2 1.5-2 0.8 0 1.5-0.7 1.5-1.5 0-0.8-0.4-1.7-1-2-0.6-0.3-1-1.4-1-2.5 0-1.1 0.4-2 1-2zm-40.9 20c1.1 0 1.9 0.7 1.9 1.8 0 0.9-0.5 2.3-1.2 2.9q-1.3 1.3-0.3 2.4c0.6 0.6 1.6 0.8 2.2 0.5 0.7-0.3 1.3-2.2 1.3-4.1 0-1.9 0.4-3.5 1-3.5 0.6 0 1 0.9 1 2 0 1.1 0.4 2 1 2 0.6 0 1-0.9 1-2 0-1.6 0.7-2 3-2 1.6 0 3.7 0.2 4.5 0.5 1 0.3 1.5 1.9 1.5 5 0 2.5-0.2 5.2-0.5 6-0.3 0.8-1.2 1.5-2 1.5-0.8 0-2.4 0.9-3.5 2-1.1 1.1-2.9 2-4 2-1.1 0-2.2 0.7-2.5 1.5-0.3 0.8-0.3 1.9 0 2.5 0.3 0.6 0.1 1.2-0.5 1.5-0.6 0.3-2.4-0.2-4-1-1.7-0.8-3.2-1.3-3.5-1-0.3 0.3-0.1 1.4 0.5 2.5 0.8 1.6 0.6 2.1-0.8 2.5-0.9 0.3-2 0-2.5-0.7-0.4-0.7-0.5-2.2-0.2-3.3 0.2-1.1 0.5-5.3 0.5-9.3 0-4.1 0.4-7.2 1-7.2 0.6 0 1.1 3.2 1.1 7.3 0.1 3.9 0.3 6.3 0.5 5.2 0.2-1.1 0.6-5.5 0.9-9.8 0.6-6.7 0.9-7.7 2.6-7.7z"/><path class="c" d="m174 108c1.2 0.6 2.1 2 2.1 3-0.1 1.3-0.7 1.9-1.9 1.7-1.1-0.1-1.8-1.2-2-3-0.2-2.6-0.1-2.8 1.8-1.7z"/><path class="d" d="m207 126c1.1 0 2 0.5 2 1 0 0.6-0.4 1.2-1 1.5-0.6 0.3-1.7 0.3-2.5 0-0.8-0.3-1.3-0.9-1-1.5 0.4-0.5 1.5-1 2.5-1zm-46.6 3.5l0.4 2.5c0.1 1.4 0 2.7-0.3 3-0.3 0.3-0.8 0.3-1.1 0-0.3-0.3-0.2-1.6 0.2-3zm49.6 2.5q2 0 2 2c0 1.5 0.7 2 2.5 2 1.4 0 2.5 0.4 2.5 1 0 0.6-0.4 1-1 1-0.5 0-0.8 0.6-0.6 1.3 0.2 0.6 1.1 1.1 2 0.9 0.9-0.1 1.6 0.4 1.6 1 0.1 0.7-0.2 1-0.5 0.5-0.2-0.4-1.2-0.1-2 0.5-0.9 0.7-2.5 2.1-3.5 3-1.2 1.1-2.6 1.5-3.5 1-0.9-0.4-2.2 0-5.5 3.3v-2.8c0-1.7-0.5-2.7-1.5-2.7-0.8 0-1.5-0.9-1.5-2 0-1.6 0.7-2 3.5-2 3.4 0 3.5-0.1 3.5-4 0-3.3 0.4-4 2-4zm-27.3 7.4c0.7 0.3 2.2 0.6 3.3 0.6q2 0 2 2c0 1.1-0.6 2-1.5 2-0.8 0-1.7-0.7-2-1.5-0.3-0.8-1.2-1.5-2-1.5-0.8 0-1.4-0.5-1.3-1.1 0.1-0.6 0.7-0.8 1.5-0.5zm-25.3 13.6c0.6 0 1.1 0.6 1.1 1.3-0.1 0.6-0.9 1.3-1.8 1.5q-1.7 0.2-1.1-1.3c0.3-0.8 1.1-1.5 1.8-1.5zm59.8 0c1.7 0 1.8 0.2 0.5 1.5-0.9 0.8-2 1.5-2.6 1.5-0.6 0-0.8-0.7-0.5-1.5 0.3-0.8 1.5-1.5 2.6-1.5zm-39.6 6c0.8 0 1.4 0.7 1.4 1.5 0 0.8-0.5 1.8-1.2 2.1-0.7 0.3-1.7 0.2-2.1-0.2-0.5-0.5-0.6-1.5-0.2-2.1 0.3-0.7 1.3-1.3 2.1-1.3zm7.9 0c1.9 0 3.9 0.6 4.3 1.2 0.5 1 0.3 1-0.7 0.3-1.2-0.8-1.4-0.6-1 1.1 0.4 1.8 0 2-2.6 1.7-2.3-0.3-2.7-0.2-1.5 0.7 1.3 0.9 1.2 1.1-0.4 0.8-1.1-0.2-1.9-0.6-1.8-1 0.1-0.5 0.2-1.7 0.2-2.8 0-1.6 0.7-2 3.5-2zm20.4 0c0.6 0 1.5 0.7 1.9 1.6 0.4 1 0.2 1.9-0.8 2.4-0.8 0.5-2.2 0.6-3 0.3-1.2-0.5-1.2-0.7 0.3-1.4 0.9-0.5 1.5-1.3 1.1-1.9-0.3-0.6-0.1-1 0.5-1zm-62.9 5.4c1.3 0.1 1.5 1.7 1.1 9.6-0.3 8.7-0.2 9.7 1.8 11.5 1.7 1.6 1.9 2.2 0.9 3.1-0.7 0.6-1.8 1.4-2.5 1.7-1 0.5-1.3-1.8-1.4-10.1 0-5.9-0.5-11.6-1.1-12.7-0.9-1.7-1.1-1.8-1.8-0.5-0.5 0.8-0.9 7.1-1.1 14-0.1 6.9 0.1 13.1 0.5 13.7 0.4 1 0.2 1.1-1.1 0.4-1-0.5-2.7-1.7-3.8-2.6-1.1-0.9-1.4-1.4-0.7-1.1 0.7 0.3 1.4-0.1 1.7-0.9 0.3-0.8 0.2-6.6-0.1-12.8-0.7-10.8-0.6-11.1 1.1-9.7 1.7 1.4 1.8 1.3 1.2-0.8-0.5-1.8-0.2-2.3 1.6-2.6 1.2-0.2 2.9-0.3 3.7-0.2zm34.6 1.6c0.8 0 1.4 0.4 1.4 1 0 0.6-1.1 1.7-2.5 2.5-1.4 0.8-2.5 1.2-2.6 0.9 0-0.3 0.4-1.4 1.1-2.5 0.6-1 1.7-1.9 2.6-1.9zm10.5 8c0.5 0 1.1 0.4 1.4 1 0.3 0.6 0.4 1.2 0.3 1.5-0.2 0.3-1.1 0.3-2 0-1-0.3-1.5-0.9-1.2-1.5 0.3-0.6 0.9-1 1.5-1zm-29.6 19c0.3 0 0.5 1.1 0.5 2.5 0 1.6-0.5 2.5-1.5 2.5-0.8 0-1.5-0.4-1.5-1 0-0.6 0.5-1 1-1 0.6 0 1-0.7 1-1.5 0-0.8 0.2-1.5 0.5-1.5zm-8.7 4.2c0.8 0.2 1.7 0.9 1.9 1.5 0.2 0.7-0.6 1.3-1.7 1.3-1.2 0-1.9-0.6-1.9-1.6 0.1-0.9 0.8-1.4 1.7-1.2zm-12.7 8.8c1.1 0.6 2 1.3 2 1.5-0.1 0.3-0.9 0.3-1.8 0.2-1.5-0.3-1.7 0.3-1.4 7.8l-0.8-4.5c-0.5-2.5-0.6-4.8-0.4-5.3 0.2-0.4 1.3-0.2 2.4 0.3zm31.9 0c1.1 0 2 0.7 2 1.5 0 1.2-0.4 1.3-2 0.5-1.1-0.6-2-1.2-2-1.5 0-0.3 0.9-0.5 2-0.5z"/><path class="e" d=""/></svg>